<svg width="454" height="560" viewBox="0 0 454 560" fill="none" xmlns="http://www.w3.org/2000/svg">
<mask id="mask0" mask-type="alpha" maskUnits="userSpaceOnUse" x="0" y="0" width="454" height="560">
<path fill-rule="evenodd" clip-rule="evenodd" d="M454 0H0V560H454V0ZM384.344 196.08C398.588 178.806 405.449 160.157 402.718 141.748C394.491 86.298 302.348 54.0287 196.911 69.6724C91.4743 85.316 12.6703 142.949 20.8974 198.399C23.6296 216.813 35.6161 232.671 54.2707 245.066C40.0272 262.34 33.1661 280.99 35.8974 299.399C38.6036 317.638 50.3896 333.37 68.7417 345.713C54.8577 362.805 48.2001 381.219 50.8974 399.399C59.1245 454.849 151.267 487.118 256.704 471.474C362.141 455.831 440.945 398.198 432.718 342.748C430.012 324.508 418.226 308.777 399.873 296.434C413.757 279.342 420.415 260.927 417.718 242.748C414.986 224.334 402.999 208.476 384.344 196.08Z" fill="#212121"/>
</mask>
<g mask="url(#mask0)">
<path fill-rule="evenodd" clip-rule="evenodd" d="M454 0H0V560H454V0ZM384.344 196.08C398.588 178.806 405.449 160.157 402.718 141.748C394.491 86.298 302.348 54.0287 196.911 69.6724C91.4743 85.316 12.6703 142.949 20.8974 198.399C23.6296 216.813 35.6161 232.671 54.2707 245.066C40.0272 262.34 33.1661 280.99 35.8974 299.399C38.6036 317.638 50.3896 333.37 68.7417 345.713C54.8577 362.805 48.2001 381.219 50.8974 399.399C59.1245 454.849 151.267 487.118 256.704 471.474C362.141 455.831 440.945 398.198 432.718 342.748C430.012 324.508 418.226 308.777 399.873 296.434C413.757 279.342 420.415 260.927 417.718 242.748C414.986 224.334 402.999 208.476 384.344 196.08Z" fill="#212121"/>
<mask id="mask1" mask-type="alpha" maskUnits="userSpaceOnUse" x="147" y="-16" width="313" height="278">
<path d="M181.524 165.932C163.042 113.629 202.411 51.8548 269.73 28.0661C337.048 4.27747 406.489 27.6008 424.971 79.9042C443.454 132.208 404.085 193.981 336.766 217.77C269.447 241.559 200.007 218.235 181.524 165.932Z" fill="#C4C4C4" stroke="#4C4C4C" stroke-width="0.8"/>
</mask>
<g mask="url(#mask1)">
<path d="M665.392 2.26415C664.142 5.02369 662.362 7.37543 660.031 9.19975C657.7 11.0241 654.997 12.185 652.008 12.7451C649.037 13.298 646.317 14.4661 643.986 16.2904C641.655 18.1147 639.875 20.4665 638.625 23.226C637.375 25.9855 635.595 28.3373 633.263 30.1616C630.932 31.9859 628.229 33.1469 625.241 33.7069C622.252 34.2669 619.55 35.4279 617.218 37.2523C614.887 39.0766 613.107 41.4283 611.857 44.1878C610.607 46.9474 608.827 49.2991 606.496 51.1235C604.165 52.9478 601.462 54.1087 598.473 54.6688C595.502 55.2217 592.782 56.3898 590.451 58.2141C588.12 60.0384 586.34 62.3902 585.09 65.1497C583.84 67.9092 582.06 70.261 579.729 72.0853C577.397 73.9096 574.694 75.0706 571.706 75.6306C568.734 76.1835 566.015 77.3516 563.683 79.176C561.352 81.0003 559.572 83.352 558.322 86.1115C557.072 88.8711 555.292 91.2228 552.961 93.0471C550.63 94.8715 547.927 96.0325 544.939 96.5925C541.967 97.1454 539.247 98.3135 536.916 100.138C534.585 101.962 532.805 104.314 531.555 107.073C530.305 109.833 528.525 112.185 526.194 114.009C523.862 115.833 521.16 116.994 518.171 117.554C515.199 118.107 512.48 119.275 510.149 121.1C507.817 122.924 506.037 125.276 504.787 128.035C503.537 130.795 501.758 133.147 499.426 134.971C497.095 136.795 494.392 137.956 491.404 138.516C488.432 139.069 485.712 140.237 483.381 142.061C481.05 143.886 479.27 146.238 478.02 148.997M657.373 22.1807C655.245 23.9481 653.606 26.1901 652.424 28.7824C651.174 31.5419 649.394 33.8937 647.063 35.718C644.731 37.5423 642.028 38.7033 639.04 39.2633C636.052 39.8233 633.349 40.9843 631.017 42.8086C628.686 44.633 626.906 46.9847 625.656 49.7442C624.406 52.5038 622.626 54.8555 620.295 56.6798C617.964 58.5042 615.261 59.6651 612.273 60.2252C609.301 60.778 606.581 61.9462 604.25 63.7705C601.919 65.5948 600.139 67.9465 598.889 70.7061C597.639 73.4656 595.859 75.8174 593.528 77.6417C591.196 79.466 588.494 80.627 585.505 81.187C582.533 81.7399 579.814 82.908 577.483 84.7323C575.151 86.5567 573.371 88.9084 572.121 91.6679C570.871 94.4275 569.091 96.7792 566.76 98.6035C564.429 100.428 561.726 101.589 558.738 102.149C555.766 102.702 553.046 103.87 550.715 105.694C548.384 107.518 546.604 109.87 545.354 112.63C544.104 115.389 542.324 117.741 539.993 119.565C537.662 121.39 534.959 122.551 531.97 123.111C528.999 123.664 526.279 124.832 523.948 126.656C521.616 128.48 519.836 130.832 518.587 133.592C517.337 136.351 515.557 138.703 513.225 140.527C510.894 142.352 508.191 143.513 505.203 144.073C502.231 144.625 499.512 145.794 497.18 147.618C494.849 149.442 493.069 151.794 491.819 154.553M647.59 46.5802C646.613 47.0755 645.691 47.6761 644.821 48.3533C642.49 50.1776 640.71 52.5294 639.46 55.2889C638.21 58.0485 636.43 60.4002 634.099 62.2245C631.768 64.0488 629.065 65.2098 626.076 65.7698C623.105 66.3227 620.385 67.4908 618.054 69.3152C615.723 71.1395 613.943 73.4912 612.693 76.2508C611.443 79.0103 609.663 81.362 607.331 83.1864C605 85.0107 602.297 86.1717 599.309 86.7317C596.337 87.2846 593.618 88.4527 591.286 90.277C588.955 92.1013 587.175 94.4531 585.925 97.2126C584.675 99.9721 582.895 102.324 580.564 104.148C578.233 105.973 575.53 107.134 572.541 107.694C569.57 108.246 566.85 109.415 564.519 111.239C562.188 113.063 560.408 115.415 559.158 118.174C557.908 120.934 556.128 123.286 553.797 125.11C551.465 126.934 548.762 128.095 545.774 128.655C542.802 129.208 540.083 130.376 537.751 132.201C535.42 134.025 533.64 136.377 532.39 139.136C531.14 141.896 529.36 144.248 527.029 146.072C524.698 147.896 521.995 149.057 519.007 149.617C516.035 150.17 513.315 151.338 510.984 153.163C508.653 154.987 506.873 157.339 505.623 160.098M637.322 71.977C635.329 72.6182 633.494 73.5874 631.836 74.8775C629.505 76.7018 627.725 79.0536 626.475 81.8131C625.225 84.5727 623.445 86.9244 621.114 88.7487C618.783 90.573 616.08 91.734 613.091 92.294C610.12 92.8469 607.4 94.015 605.069 95.8394C602.738 97.6637 600.958 100.015 599.708 102.775C598.458 105.534 596.678 107.886 594.347 109.711C592.015 111.535 589.313 112.696 586.324 113.256C583.352 113.809 580.633 114.977 578.301 116.801C575.97 118.626 574.19 120.977 572.94 123.737C571.69 126.496 569.91 128.848 567.579 130.672C565.248 132.497 562.545 133.658 559.557 134.218C556.585 134.771 553.865 135.939 551.534 137.763C549.203 139.587 547.423 141.939 546.173 144.699C544.923 147.458 543.143 149.81 540.812 151.634C538.48 153.459 535.778 154.62 532.789 155.18C529.817 155.732 527.098 156.901 524.767 158.725C522.435 160.549 520.655 162.901 519.405 165.66M626.908 97.8434C623.936 98.3963 621.216 99.5644 618.885 101.389C616.554 103.213 614.774 105.565 613.524 108.324C612.274 111.084 610.494 113.436 608.163 115.26C605.831 117.084 603.129 118.245 600.14 118.805C597.168 119.358 594.449 120.526 592.118 122.351C589.786 124.175 588.006 126.527 586.756 129.286C585.507 132.046 583.727 134.397 581.395 136.222C579.064 138.046 576.361 139.207 573.373 139.767C570.401 140.32 567.681 141.488 565.35 143.312C563.019 145.137 561.239 147.489 559.989 150.248C558.739 153.008 556.959 155.359 554.628 157.184C552.297 159.008 549.594 160.169 546.605 160.729C543.634 161.282 540.914 162.45 538.583 164.274C536.252 166.099 534.472 168.45 533.222 171.21M616.493 123.71C615.665 123.973 614.815 124.187 613.94 124.362C610.968 124.915 608.248 126.083 605.917 127.907C603.586 129.731 601.806 132.083 600.556 134.843C599.306 137.602 597.526 139.954 595.195 141.778C592.863 143.603 590.161 144.764 587.172 145.324C584.2 145.877 581.481 147.045 579.15 148.869C576.818 150.693 575.038 153.045 573.788 155.805C572.538 158.564 570.758 160.916 568.427 162.74C566.096 164.565 563.393 165.725 560.405 166.285C557.433 166.838 554.713 168.006 552.382 169.831C550.051 171.655 548.271 174.007 547.021 176.766M606.28 149.074C604.633 149.924 602.861 150.53 600.971 150.879C597.999 151.432 595.28 152.6 592.949 154.425C590.617 156.249 588.837 158.601 587.587 161.36C586.338 164.12 584.558 166.471 582.226 168.296C579.895 170.12 577.192 171.281 574.204 171.841C571.232 172.394 568.512 173.562 566.181 175.386C563.85 177.211 562.07 179.562 560.82 182.322M596.438 173.519C596.297 173.629 596.167 173.743 596.026 173.853C593.695 175.677 590.992 176.838 588.003 177.398C585.032 177.951 582.312 179.119 579.981 180.943C577.65 182.768 575.87 185.119 574.62 187.879M651.592 -3.29227C650.342 -0.53274 648.562 1.81901 646.231 3.64333C643.9 5.46766 641.197 6.62863 638.208 7.18865C635.237 7.74154 632.517 8.90967 630.186 10.734C627.855 12.5583 626.075 14.91 624.825 17.6696C623.575 20.4291 621.795 22.7809 619.463 24.6052C617.132 26.4295 614.429 27.5905 611.441 28.1505C608.452 28.7105 605.75 29.8715 603.418 31.6958C601.087 33.5202 599.307 35.8719 598.057 38.6314C596.807 41.391 595.027 43.7427 592.696 45.567C590.365 47.3913 587.662 48.5523 584.673 49.1124C581.702 49.6652 578.982 50.8334 576.651 52.6577C574.32 54.482 572.54 56.8338 571.29 59.5933C570.04 62.3528 568.26 64.7046 565.929 66.5289C563.597 68.3532 560.894 69.5142 557.906 70.0742C554.934 70.6271 552.215 71.7952 549.883 73.6195C547.552 75.4439 545.772 77.7956 544.522 80.5551C543.272 83.3147 541.492 85.6664 539.161 87.4907C536.83 89.3151 534.127 90.476 531.139 91.0361C528.167 91.589 525.447 92.7571 523.116 94.5814C520.785 96.4057 519.005 98.7575 517.755 101.517C516.505 104.277 514.725 106.628 512.394 108.453C510.062 110.277 507.36 111.438 504.371 111.998C501.399 112.551 498.68 113.719 496.349 115.543C494.017 117.368 492.237 119.719 490.987 122.479C489.737 125.238 487.957 127.59 485.626 129.414C483.295 131.239 480.592 132.4 477.604 132.96C474.632 133.513 471.912 134.681 469.581 136.505C467.25 138.329 465.47 140.681 464.22 143.441M637.792 -8.84864C636.542 -6.08911 634.762 -3.73735 632.43 -1.91303C630.099 -0.0887106 627.396 1.07226 624.408 1.63229C621.436 2.18517 618.717 3.3533 616.385 5.17762C614.054 7.00194 612.274 9.35368 611.024 12.1132C609.774 14.8727 607.994 17.2245 605.663 19.0488C603.332 20.8731 600.629 22.0341 597.64 22.5941C594.669 23.147 591.949 24.3151 589.618 26.1395C587.287 27.9638 585.507 30.3155 584.257 33.0751C583.007 35.8346 581.227 38.1863 578.896 40.0107C576.564 41.835 573.861 42.996 570.873 43.556C567.901 44.1089 565.182 45.277 562.85 47.1013C560.519 48.9256 558.739 51.2774 557.489 54.0369C556.239 56.7965 554.459 59.1482 552.128 60.9725C549.797 62.7968 547.094 63.9578 544.106 64.5178C541.134 65.0707 538.414 66.2389 536.083 68.0632C533.752 69.8875 531.972 72.2392 530.722 74.9988C529.472 77.7583 527.692 80.11 525.361 81.9344C523.029 83.7587 520.327 84.9197 517.338 85.4797C514.366 86.0326 511.647 87.2007 509.316 89.025C506.984 90.8493 505.204 93.2011 503.954 95.9606C502.704 98.7201 500.924 101.072 498.593 102.896C496.262 104.721 493.559 105.882 490.571 106.442C487.599 106.994 484.879 108.163 482.548 109.987C480.217 111.811 478.437 114.163 477.187 116.922C475.937 119.682 474.157 122.034 471.826 123.858C469.495 125.682 466.792 126.843 463.803 127.403C460.832 127.956 458.112 129.124 455.781 130.949C453.449 132.773 451.669 135.125 450.42 137.884M624.005 -14.4003C622.755 -11.6407 620.975 -9.28899 618.644 -7.46467C616.313 -5.64035 613.61 -4.47937 610.622 -3.91935C607.65 -3.36646 604.93 -2.19834 602.599 -0.374015C600.268 1.45031 598.488 3.80204 597.238 6.56158C595.988 9.32111 594.208 11.6729 591.877 13.4972C589.545 15.3215 586.843 16.4825 583.854 17.0425C580.866 17.6025 578.163 18.7635 575.832 20.5878C573.5 22.4122 571.72 24.7639 570.47 27.5234C569.22 30.283 567.44 32.6347 565.109 34.459C562.778 36.2833 560.075 37.4443 557.087 38.0044C554.115 38.5572 551.395 39.7254 549.064 41.5497C546.733 43.374 544.953 45.7257 543.703 48.4853C542.453 51.2448 540.673 53.5966 538.342 55.4209C536.011 57.2452 533.308 58.4062 530.319 58.9662C527.347 59.5191 524.628 60.6872 522.297 62.5115C519.965 64.3359 518.185 66.6876 516.935 69.4471C515.686 72.2067 513.906 74.5584 511.574 76.3827C509.243 78.207 506.54 79.368 503.552 79.9281C500.58 80.4809 497.86 81.6491 495.529 83.4734C493.198 85.2977 491.418 87.6495 490.168 90.409C488.918 93.1685 487.138 95.5203 484.807 97.3446C482.476 99.1689 479.773 100.33 476.784 100.89C473.813 101.443 471.093 102.611 468.762 104.435C466.431 106.26 464.651 108.611 463.401 111.371C462.151 114.13 460.371 116.482 458.039 118.306C455.708 120.131 453.005 121.292 450.017 121.852C447.045 122.405 444.326 123.573 441.994 125.397C439.663 127.221 437.883 129.573 436.633 132.333M610.205 -19.9557C608.955 -17.1962 607.175 -14.8445 604.844 -13.0201C602.513 -11.1958 599.81 -10.0349 596.822 -9.47483C593.85 -8.92194 591.13 -7.75382 588.799 -5.9295C586.468 -4.10518 584.688 -1.75344 583.438 1.0061C582.188 3.76563 580.408 6.11737 578.077 7.94169C575.745 9.76601 573.043 10.927 570.054 11.487C567.082 12.0399 564.363 13.208 562.032 15.0324C559.7 16.8567 557.92 19.2084 556.67 21.9679C555.42 24.7275 553.64 27.0792 551.309 28.9035C548.978 30.7279 546.275 31.8889 543.287 32.4489C540.315 33.0018 537.595 34.1699 535.264 35.9942C532.933 37.8185 531.153 40.1703 529.903 42.9298C528.653 45.6893 526.873 48.0411 524.542 49.8654C522.21 51.6897 519.508 52.8507 516.519 53.4107C513.547 53.9636 510.828 55.1317 508.497 56.9561C506.165 58.7804 504.385 61.1321 503.135 63.8917C501.886 66.6512 500.106 69.0029 497.774 70.8272C495.443 72.6516 492.74 73.8126 489.752 74.3726C486.78 74.9255 484.06 76.0936 481.729 77.9179C479.398 79.7422 477.618 82.094 476.368 84.8535C475.118 87.613 473.338 89.9648 471.007 91.7891C468.676 93.6134 465.973 94.7744 462.984 95.3344C460.013 95.8873 457.293 97.0554 454.962 98.8798C452.631 100.704 450.851 103.056 449.601 105.815C448.351 108.575 446.571 110.927 444.239 112.751C441.908 114.575 439.205 115.736 436.217 116.296C433.245 116.849 430.526 118.017 428.194 119.842C425.863 121.666 424.083 124.018 422.833 126.777M596.408 -25.5113C595.158 -22.7518 593.378 -20.4001 591.047 -18.5757C588.716 -16.7514 586.013 -15.5904 583.024 -15.0304C580.053 -14.4775 577.333 -13.3094 575.002 -11.4851C572.67 -9.66076 570.891 -7.30902 569.641 -4.54949C568.391 -1.78996 566.611 0.56178 564.279 2.3861C561.948 4.21042 559.245 5.37141 556.257 5.93143C553.268 6.49146 550.566 7.65243 548.234 9.47675C545.903 11.3011 544.123 13.6528 542.873 16.4124C541.623 19.1719 539.843 21.5236 537.512 23.348C535.181 25.1723 532.478 26.3333 529.489 26.8933C526.518 27.4462 523.798 28.6143 521.467 30.4386C519.136 32.2629 517.356 34.6147 516.106 37.3742C514.856 40.1337 513.076 42.4855 510.745 44.3098C508.413 46.1341 505.71 47.2951 502.722 47.8551C499.75 48.408 497.031 49.5762 494.699 51.4005C492.368 53.2248 490.588 55.5765 489.338 58.3361C488.088 61.0956 486.308 63.4473 483.977 65.2717C481.646 67.096 478.943 68.257 475.955 68.817C472.983 69.3699 470.263 70.538 467.932 72.3623C465.601 74.1866 463.821 76.5384 462.571 79.2979C461.321 82.0574 459.541 84.4092 457.21 86.2335C454.878 88.0578 452.176 89.2188 449.187 89.7788C446.215 90.3317 443.496 91.4998 441.165 93.3242C438.833 95.1485 437.053 97.5002 435.803 100.26C434.553 103.019 432.773 105.371 430.442 107.195C428.111 109.02 425.408 110.181 422.42 110.741C419.448 111.294 416.728 112.462 414.397 114.286C412.066 116.11 410.286 118.462 409.036 121.222M582.607 -31.0686C581.357 -28.3091 579.577 -25.9573 577.246 -24.133C574.915 -22.3087 572.212 -21.1477 569.223 -20.5877C566.252 -20.0348 563.532 -18.8667 561.201 -17.0423C558.87 -15.218 557.09 -12.8663 555.84 -10.1067C554.59 -7.34721 552.81 -4.99547 550.479 -3.17115C548.147 -1.34683 545.444 -0.185841 542.456 0.374183C539.467 0.934207 536.765 2.09518 534.433 3.9195C532.102 5.74382 530.322 8.09558 529.072 10.8551C527.822 13.6146 526.042 15.9664 523.711 17.7907C521.38 19.615 518.677 20.776 515.689 21.336C512.717 21.8889 509.997 23.057 507.666 24.8814C505.335 26.7057 503.555 29.0574 502.305 31.817C501.055 34.5765 499.275 36.9282 496.944 38.7526C494.612 40.5769 491.91 41.7379 488.921 42.2979C485.949 42.8508 483.23 44.0189 480.899 45.8432C478.567 47.6675 476.787 50.0193 475.537 52.7788C474.287 55.5383 472.507 57.8901 470.176 59.7144C467.845 61.5387 465.142 62.6997 462.154 63.2597C459.182 63.8126 456.462 64.9807 454.131 66.8051C451.8 68.6294 450.02 70.9811 448.77 73.7407C447.52 76.5002 445.74 78.8519 443.409 80.6763C441.078 82.5006 438.375 83.6616 435.386 84.2216C432.414 84.7745 429.695 85.9426 427.364 87.7669C425.032 89.5912 423.252 91.943 422.002 94.7025C420.753 97.462 418.973 99.8138 416.641 101.638C414.31 103.462 411.607 104.623 408.619 105.183C405.647 105.736 402.927 106.904 400.596 108.729C398.265 110.553 396.485 112.905 395.235 115.664M568.809 -36.6239C567.559 -33.8644 565.779 -31.5126 563.448 -29.6883C561.117 -27.864 558.414 -26.703 555.426 -26.143C552.454 -25.5901 549.734 -24.422 547.403 -22.5977C545.072 -20.7733 543.292 -18.4216 542.042 -15.6621C540.792 -12.9025 539.012 -10.5508 536.681 -8.72646C534.349 -6.90214 531.647 -5.74117 528.658 -5.18115C525.67 -4.62112 522.967 -3.46013 520.636 -1.63581C518.304 0.188509 516.524 2.54025 515.274 5.29978C514.024 8.05931 512.244 10.4111 509.913 12.2354C507.582 14.0597 504.879 15.2207 501.891 15.7807C498.919 16.3336 496.199 17.5017 493.868 19.326C491.537 21.1504 489.757 23.5021 488.507 26.2616C487.257 29.0212 485.477 31.3729 483.146 33.1972C480.815 35.0215 478.112 36.1825 475.123 36.7426C472.151 37.2954 469.432 38.4636 467.101 40.2879C464.769 42.1122 462.989 44.464 461.739 47.2235C460.49 49.983 458.71 52.3348 456.378 54.1591C454.047 55.9834 451.344 57.1444 448.356 57.7044C445.384 58.2573 442.664 59.4254 440.333 61.2497C438.002 63.0741 436.222 65.4258 434.972 68.1853C433.722 70.9449 431.942 73.2966 429.611 75.1209C427.28 76.9453 424.577 78.1062 421.588 78.6663C418.605 79.2143 415.897 80.3873 413.566 82.2116C411.235 84.0359 409.455 86.3876 408.205 89.1472C407.022 91.7394 405.388 93.9695 403.26 95.7369M555.02 -42.1766C553.77 -39.4171 551.99 -37.0653 549.659 -35.241C547.328 -33.4167 544.625 -32.2557 541.637 -31.6957C538.665 -31.1428 535.945 -29.9747 533.614 -28.1504C531.283 -26.326 529.503 -23.9743 528.253 -21.2148C527.003 -18.4552 525.223 -16.1035 522.892 -14.2792C520.561 -12.4548 517.858 -11.2939 514.869 -10.7338C511.897 -10.181 509.178 -9.01284 506.847 -7.18852C504.515 -5.36419 502.735 -3.01246 501.485 -0.252923C500.236 2.50661 498.456 4.85836 496.124 6.68268C493.793 8.50701 491.09 9.66798 488.102 10.228C485.13 10.7809 482.41 11.949 480.079 13.7733C477.748 15.5976 475.968 17.9494 474.718 20.7089C473.468 23.4685 471.688 25.8202 469.357 27.6445C467.026 29.4689 464.323 30.6298 461.334 31.1899C458.363 31.7427 455.643 32.9109 453.312 34.7352C450.981 36.5595 449.201 38.9112 447.951 41.6708C446.701 44.4303 444.921 46.7821 442.589 48.6064C440.258 50.4307 437.555 51.5917 434.567 52.1517C431.595 52.7046 428.876 53.8727 426.544 55.697C424.213 57.5213 422.433 59.8731 421.183 62.6326C419.933 65.3922 418.153 67.7439 415.822 69.5682C414.969 70.2383 414.068 70.8199 413.12 71.3128M541.235 -47.7264C539.985 -44.9669 538.205 -42.6152 535.874 -40.7908C533.542 -38.9665 530.84 -37.8055 527.851 -37.2455C524.879 -36.6926 522.16 -35.5245 519.828 -33.7002C517.497 -31.8759 515.717 -29.5241 514.467 -26.7646C513.217 -24.0051 511.437 -21.6533 509.106 -19.829C506.775 -18.0047 504.072 -16.8437 501.084 -16.2837C498.112 -15.7308 495.392 -14.5627 493.061 -12.7383C490.73 -10.914 488.95 -8.56228 487.7 -5.80274C486.45 -3.04321 484.67 -0.691472 482.339 1.13285C480.007 2.95717 477.305 4.11816 474.316 4.67818C471.344 5.23107 468.625 6.39918 466.294 8.2235C463.962 10.0478 462.182 12.3996 460.932 15.1591C459.682 17.9186 457.903 20.2704 455.571 22.0947C453.24 23.919 450.537 25.08 447.549 25.64C444.577 26.1929 441.857 27.361 439.526 29.1854C437.195 31.0097 435.415 33.3614 434.165 36.1209C432.915 38.8805 431.135 41.2322 428.804 43.0566C427.158 44.3515 425.316 45.304 423.335 45.95M527.423 -53.2876C526.173 -50.5281 524.393 -48.1764 522.062 -46.352C519.731 -44.5277 517.028 -43.3667 514.039 -42.8067C511.068 -42.2538 508.348 -41.0857 506.017 -39.2614C503.685 -37.4371 501.906 -35.0853 500.656 -32.3258C499.406 -29.5663 497.626 -27.2145 495.294 -25.3902C492.963 -23.5659 490.26 -22.4049 487.272 -21.8449C484.283 -21.2848 481.581 -20.1239 479.249 -18.2995C476.918 -16.4752 475.138 -14.1235 473.888 -11.3639C472.638 -8.60441 470.858 -6.25266 468.527 -4.42834C466.196 -2.60402 463.493 -1.44304 460.504 -0.88302C457.533 -0.330134 454.813 0.837992 452.482 2.66231C450.151 4.48663 448.371 6.83837 447.121 9.59791C445.871 12.3574 444.091 14.7092 441.76 16.5335C439.428 18.3578 436.725 19.5188 433.737 20.0788M513.634 -58.8394C512.385 -56.0799 510.605 -53.7282 508.273 -51.9038C505.942 -50.0795 503.239 -48.9185 500.251 -48.3585C497.267 -47.8104 494.559 -46.6375 492.228 -44.8132C489.897 -42.9889 488.117 -40.6371 486.867 -37.8776C485.617 -35.1181 483.837 -32.7663 481.506 -30.942C479.175 -29.1177 476.472 -27.9567 473.483 -27.3967C470.512 -26.8438 467.792 -25.6757 465.461 -23.8513C463.13 -22.027 461.35 -19.6753 460.1 -16.9157C458.85 -14.1562 457.07 -11.8045 454.738 -9.98014C452.407 -8.15582 449.704 -6.99485 446.716 -6.43482C445.845 -6.27178 444.995 -6.05845 444.167 -5.79486M499.848 -64.3911C498.598 -61.6315 496.818 -59.2798 494.487 -57.4555C492.156 -55.6311 489.453 -54.4702 486.464 -53.9101C483.493 -53.3573 480.773 -52.1891 478.442 -50.3648C476.111 -48.5405 474.331 -46.1887 473.081 -43.4292C471.831 -40.6697 470.051 -38.3179 467.72 -36.4936C465.388 -34.6693 462.685 -33.5083 459.697 -32.9483C457.835 -32.601 456.074 -32.019 454.46 -31.1832M486.048 -69.9466C484.798 -67.187 483.018 -64.8353 480.687 -63.011C478.356 -61.1866 475.653 -60.0257 472.664 -59.4656C469.693 -58.9127 466.973 -57.7446 464.642 -55.9203C464.5 -55.8106 464.359 -55.7009 464.23 -55.5864M588.423 193.421C587.173 196.181 585.393 198.532 583.062 200.357C580.73 202.181 578.027 203.342 575.039 203.902C572.067 204.455 569.348 205.623 567.016 207.447C564.685 209.272 562.905 211.623 561.655 214.383C560.405 217.142 558.625 219.494 556.294 221.319C553.963 223.143 551.26 224.304 548.272 224.864C545.283 225.424 542.58 226.585 540.249 228.409C537.918 230.234 536.138 232.585 534.888 235.345C533.638 238.104 531.858 240.456 529.527 242.28C527.195 244.105 524.493 245.266 521.504 245.826C518.532 246.379 515.813 247.547 513.482 249.371C511.15 251.195 509.37 253.547 508.12 256.307C506.87 259.066 505.091 261.418 502.759 263.242C500.428 265.067 497.725 266.228 494.737 266.788C491.765 267.34 489.045 268.509 486.714 270.333C484.383 272.157 482.603 274.509 481.353 277.268C480.103 280.028 478.323 282.38 475.992 284.204C473.661 286.028 470.958 287.189 467.969 287.749C464.998 288.302 462.278 289.47 459.947 291.295C457.615 293.119 455.836 295.471 454.586 298.23C453.336 300.99 451.556 303.342 449.224 305.166C446.893 306.99 444.19 308.151 441.202 308.711C438.23 309.264 435.511 310.432 433.179 312.257C430.848 314.081 429.068 316.433 427.818 319.192C426.568 321.952 424.788 324.303 422.457 326.128C420.126 327.952 417.423 329.113 414.434 329.673C411.463 330.226 408.743 331.394 406.412 333.218C404.081 335.043 402.301 337.394 401.051 340.154M580.404 213.337C578.276 215.104 576.637 217.347 575.455 219.939C574.205 222.698 572.425 225.05 570.093 226.874C567.762 228.699 565.059 229.86 562.071 230.42C559.082 230.98 556.38 232.141 554.048 233.965C551.717 235.789 549.937 238.141 548.687 240.901C547.437 243.66 545.657 246.012 543.326 247.836C540.995 249.661 538.292 250.822 535.303 251.382C532.332 251.934 529.612 253.103 527.281 254.927C524.95 256.751 523.17 259.103 521.92 261.862C520.67 264.622 518.89 266.974 516.559 268.798C514.227 270.622 511.524 271.783 508.536 272.343C505.564 272.896 502.845 274.064 500.513 275.889C498.182 277.713 496.402 280.065 495.152 282.824C493.902 285.584 492.122 287.936 489.791 289.76C487.46 291.584 484.757 292.745 481.769 293.305C478.797 293.858 476.077 295.026 473.746 296.851C471.415 298.675 469.635 301.027 468.385 303.786C467.135 306.546 465.355 308.897 463.024 310.722C460.692 312.546 457.99 313.707 455.001 314.267C452.029 314.82 449.31 315.988 446.979 317.812C444.647 319.637 442.867 321.988 441.617 324.748C440.367 327.508 438.587 329.859 436.256 331.684C433.925 333.508 431.222 334.669 428.234 335.229C425.262 335.782 422.542 336.95 420.211 338.774C417.88 340.599 416.1 342.95 414.85 345.71M570.62 237.736C569.644 238.231 568.721 238.832 567.852 239.509C565.52 241.333 563.74 243.685 562.49 246.444C561.241 249.204 559.461 251.556 557.129 253.38C554.798 255.204 552.095 256.365 549.107 256.925C546.135 257.478 543.415 258.646 541.084 260.471C538.753 262.295 536.973 264.647 535.723 267.406C534.473 270.166 532.693 272.518 530.362 274.342C528.031 276.166 525.328 277.327 522.339 277.887C519.368 278.44 516.648 279.608 514.317 281.433C511.986 283.257 510.206 285.609 508.956 288.368C507.706 291.128 505.926 293.479 503.594 295.304C501.263 297.128 498.56 298.289 495.572 298.849C492.6 299.402 489.881 300.57 487.549 302.394C485.218 304.219 483.438 306.57 482.188 309.33C480.938 312.089 479.158 314.441 476.827 316.266C474.496 318.09 471.793 319.251 468.804 319.811C465.833 320.364 463.113 321.532 460.782 323.356C458.451 325.181 456.671 327.532 455.421 330.292C454.171 333.051 452.391 335.403 450.06 337.227C447.728 339.052 445.025 340.213 442.037 340.773C439.065 341.326 436.346 342.494 434.014 344.318C431.683 346.142 429.903 348.494 428.653 351.254M560.354 263.134C558.36 263.775 556.526 264.745 554.868 266.035C552.536 267.859 550.756 270.211 549.506 272.97C548.256 275.73 546.477 278.082 544.145 279.906C541.814 281.73 539.111 282.891 536.123 283.451C533.151 284.004 530.431 285.172 528.1 286.997C525.769 288.821 523.989 291.173 522.739 293.932C521.489 296.692 519.709 299.044 517.378 300.868C515.047 302.692 512.344 303.853 509.355 304.413C506.384 304.966 503.664 306.134 501.333 307.959C499.001 309.783 497.221 312.135 495.972 314.894C494.722 317.654 492.942 320.005 490.61 321.83C488.279 323.654 485.576 324.815 482.588 325.375C479.616 325.928 476.897 327.096 474.565 328.92C472.234 330.745 470.454 333.096 469.204 335.856C467.954 338.616 466.174 340.967 463.843 342.792C461.512 344.616 458.809 345.777 455.82 346.337C452.849 346.89 450.129 348.058 447.798 349.882C445.467 351.707 443.687 354.058 442.437 356.818M549.938 289C546.967 289.553 544.247 290.721 541.916 292.545C539.585 294.369 537.805 296.721 536.555 299.481C535.305 302.24 533.525 304.592 531.194 306.416C528.862 308.241 526.16 309.402 523.171 309.962C520.199 310.515 517.48 311.683 515.149 313.507C512.817 315.331 511.037 317.683 509.787 320.443C508.537 323.202 506.757 325.554 504.426 327.378C502.095 329.203 499.392 330.364 496.404 330.924C493.432 331.476 490.712 332.645 488.381 334.469C486.05 336.293 484.27 338.645 483.02 341.404C481.77 344.164 479.99 346.516 477.659 348.34C475.327 350.164 472.625 351.325 469.636 351.885C466.664 352.438 463.945 353.606 461.614 355.431C459.282 357.255 457.502 359.607 456.252 362.366M539.524 314.866C538.696 315.13 537.846 315.343 536.97 315.518C533.999 316.071 531.279 317.239 528.948 319.064C526.617 320.888 524.837 323.24 523.587 325.999C522.337 328.759 520.557 331.11 518.226 332.935C515.894 334.759 513.191 335.92 510.203 336.48C507.231 337.033 504.512 338.201 502.18 340.025C499.849 341.85 498.069 344.201 496.819 346.961C495.569 349.721 493.789 352.072 491.458 353.897C489.127 355.721 486.424 356.882 483.436 357.442C480.464 357.995 477.744 359.163 475.413 360.987C473.082 362.812 471.302 365.163 470.052 367.923M529.311 340.231C527.664 341.081 525.893 341.687 524.002 342.037C521.031 342.589 518.311 343.758 515.98 345.582C513.649 347.406 511.869 349.758 510.619 352.517C509.369 355.277 507.589 357.629 505.258 359.453C502.926 361.277 500.223 362.438 497.235 362.998C494.263 363.551 491.544 364.719 489.212 366.544C486.881 368.368 485.101 370.72 483.851 373.479M519.468 364.674C519.327 364.784 519.198 364.899 519.056 365.008C516.725 366.833 514.022 367.994 511.034 368.554C508.062 369.106 505.342 370.275 503.011 372.099C500.68 373.923 498.9 376.275 497.65 379.034M574.623 187.865C573.373 190.625 571.593 192.976 569.262 194.801C566.931 196.625 564.228 197.786 561.24 198.346C558.268 198.899 555.548 200.067 553.217 201.891C550.886 203.716 549.106 206.067 547.856 208.827C546.606 211.586 544.826 213.938 542.495 215.762C540.163 217.587 537.461 218.748 534.472 219.308C531.484 219.868 528.781 221.029 526.45 222.853C524.118 224.677 522.338 227.029 521.088 229.789C519.838 232.548 518.059 234.9 515.727 236.724C513.396 238.549 510.693 239.71 507.705 240.27C504.733 240.823 502.013 241.991 499.682 243.815C497.351 245.639 495.571 247.991 494.321 250.751C493.071 253.51 491.291 255.862 488.96 257.686C486.629 259.511 483.926 260.671 480.937 261.232C477.966 261.784 475.246 262.953 472.915 264.777C470.583 266.601 468.804 268.953 467.554 271.712C466.304 274.472 464.524 276.824 462.192 278.648C459.861 280.472 457.158 281.633 454.17 282.193C451.198 282.746 448.479 283.914 446.147 285.739C443.816 287.563 442.036 289.915 440.786 292.674C439.536 295.434 437.756 297.786 435.425 299.61C433.094 301.434 430.391 302.595 427.402 303.155C424.431 303.708 421.711 304.876 419.38 306.701C417.049 308.525 415.269 310.877 414.019 313.636C412.769 316.396 410.989 318.747 408.658 320.572C406.326 322.396 403.623 323.557 400.635 324.117C397.663 324.67 394.944 325.838 392.612 327.662C390.281 329.487 388.501 331.838 387.251 334.598M560.822 182.308C559.573 185.067 557.793 187.419 555.461 189.243C553.13 191.068 550.427 192.229 547.439 192.789C544.467 193.342 541.747 194.51 539.416 196.334C537.085 198.158 535.305 200.51 534.055 203.27C532.805 206.029 531.025 208.381 528.694 210.205C526.363 212.03 523.66 213.191 520.671 213.751C517.7 214.303 514.98 215.472 512.649 217.296C510.318 219.12 508.538 221.472 507.288 224.231C506.038 226.991 504.258 229.343 501.926 231.167C499.595 232.991 496.892 234.152 493.904 234.712C490.932 235.265 488.213 236.433 485.881 238.258C483.55 240.082 481.77 242.434 480.52 245.193C479.27 247.953 477.49 250.305 475.159 252.129C472.828 253.953 470.125 255.114 467.136 255.674C464.165 256.227 461.445 257.395 459.114 259.22C456.783 261.044 455.003 263.396 453.753 266.155C452.503 268.915 450.723 271.266 448.392 273.091C446.06 274.915 443.357 276.076 440.369 276.636C437.397 277.189 434.678 278.357 432.346 280.181C430.015 282.006 428.235 284.357 426.985 287.117C425.735 289.877 423.955 292.228 421.624 294.053C419.293 295.877 416.59 297.038 413.602 297.598C410.63 298.151 407.91 299.319 405.579 301.143C403.248 302.968 401.468 305.319 400.218 308.079C398.968 310.838 397.188 313.19 394.857 315.014C392.525 316.839 389.823 318 386.834 318.56C383.862 319.113 381.143 320.281 378.812 322.105C376.48 323.929 374.7 326.281 373.45 329.041M547.037 176.757C545.787 179.517 544.007 181.868 541.675 183.693C539.344 185.517 536.641 186.678 533.653 187.238C530.681 187.791 527.961 188.959 525.63 190.783C523.299 192.608 521.519 194.959 520.269 197.719C519.019 200.478 517.239 202.83 514.908 204.654C512.577 206.479 509.874 207.64 506.885 208.2C503.897 208.76 501.194 209.921 498.863 211.745C496.532 213.569 494.752 215.921 493.502 218.681C492.252 221.44 490.472 223.792 488.14 225.616C485.809 227.441 483.106 228.602 480.118 229.162C477.146 229.715 474.427 230.883 472.095 232.707C469.764 234.531 467.984 236.883 466.734 239.643C465.484 242.402 463.704 244.754 461.373 246.578C459.042 248.403 456.339 249.563 453.35 250.124C450.379 250.676 447.659 251.845 445.328 253.669C442.997 255.493 441.217 257.845 439.967 260.604C438.717 263.364 436.937 265.716 434.606 267.54C432.274 269.364 429.572 270.525 426.583 271.085C423.611 271.638 420.892 272.806 418.56 274.631C416.229 276.455 414.449 278.807 413.199 281.566C411.949 284.326 410.169 286.678 407.838 288.502C405.507 290.326 402.804 291.487 399.816 292.047C396.844 292.6 394.124 293.768 391.793 295.593C389.462 297.417 387.682 299.769 386.432 302.528C385.182 305.288 383.402 307.639 381.071 309.464C378.739 311.288 376.037 312.449 373.048 313.009C370.076 313.562 367.357 314.73 365.026 316.554C362.694 318.379 360.914 320.73 359.664 323.49M533.236 171.2C531.986 173.959 530.206 176.311 527.875 178.135C525.543 179.96 522.84 181.121 519.852 181.681C516.88 182.234 514.161 183.402 511.829 185.226C509.498 187.05 507.718 189.402 506.468 192.162C505.218 194.921 503.438 197.273 501.107 199.097C498.776 200.922 496.073 202.082 493.085 202.643C490.113 203.195 487.393 204.364 485.062 206.188C482.731 208.012 480.951 210.364 479.701 213.123C478.451 215.883 476.671 218.235 474.34 220.059C472.008 221.883 469.306 223.044 466.317 223.604C463.345 224.157 460.626 225.325 458.295 227.15C455.963 228.974 454.183 231.326 452.933 234.085C451.683 236.845 449.904 239.197 447.572 241.021C445.241 242.845 442.538 244.006 439.55 244.566C436.578 245.119 433.858 246.287 431.527 248.112C429.196 249.936 427.416 252.288 426.166 255.047C424.916 257.807 423.136 260.158 420.805 261.983C418.474 263.807 415.771 264.968 412.782 265.528C409.811 266.081 407.091 267.249 404.76 269.073C402.428 270.898 400.649 273.249 399.399 276.009C398.149 278.769 396.369 281.12 394.037 282.945C391.706 284.769 389.003 285.93 386.015 286.49C383.043 287.043 380.324 288.211 377.992 290.035C375.661 291.86 373.881 294.211 372.631 296.971C371.381 299.73 369.601 302.082 367.27 303.906C364.939 305.731 362.236 306.892 359.247 307.452C356.276 308.005 353.556 309.173 351.225 310.997C348.894 312.821 347.114 315.173 345.864 317.933M519.438 165.644C518.188 168.404 516.409 170.755 514.077 172.58C511.746 174.404 509.043 175.565 506.055 176.125C503.083 176.678 500.363 177.846 498.032 179.67C495.701 181.495 493.921 183.846 492.671 186.606C491.421 189.366 489.641 191.717 487.31 193.542C484.979 195.366 482.276 196.527 479.287 197.087C476.299 197.647 473.596 198.808 471.265 200.632C468.933 202.457 467.154 204.808 465.904 207.568C464.654 210.327 462.874 212.679 460.542 214.503C458.211 216.328 455.508 217.489 452.52 218.049C449.548 218.602 446.829 219.77 444.497 221.594C442.166 223.418 440.386 225.77 439.136 228.53C437.886 231.289 436.106 233.641 433.775 235.465C431.444 237.29 428.741 238.451 425.752 239.011C422.781 239.564 420.061 240.732 417.73 242.556C415.399 244.38 413.619 246.732 412.369 249.492C411.119 252.251 409.339 254.603 407.008 256.427C404.676 258.252 401.973 259.412 398.985 259.973C396.013 260.525 393.294 261.694 390.962 263.518C388.631 265.342 386.851 267.694 385.601 270.453C384.351 273.213 382.571 275.565 380.24 277.389C377.909 279.213 375.206 280.374 372.218 280.934C369.246 281.487 366.526 282.655 364.195 284.48C361.864 286.304 360.084 288.656 358.834 291.415C357.584 294.175 355.804 296.527 353.473 298.351C351.141 300.175 348.439 301.336 345.45 301.896C342.478 302.449 339.759 303.617 337.428 305.442C335.096 307.266 333.316 309.618 332.066 312.377M505.638 160.089C504.388 162.848 502.608 165.2 500.277 167.024C497.946 168.849 495.243 170.01 492.255 170.57C489.283 171.123 486.563 172.291 484.232 174.115C481.901 175.939 480.121 178.291 478.871 181.051C477.621 183.81 475.841 186.162 473.51 187.986C471.179 189.811 468.476 190.971 465.487 191.531C462.499 192.092 459.796 193.252 457.465 195.077C455.133 196.901 453.353 199.253 452.104 202.012C450.854 204.772 449.074 207.124 446.742 208.948C444.411 210.772 441.708 211.933 438.72 212.493C435.748 213.046 433.028 214.214 430.697 216.039C428.366 217.863 426.586 220.215 425.336 222.974C424.086 225.734 422.306 228.086 419.975 229.91C417.644 231.734 414.941 232.895 411.952 233.455C408.981 234.008 406.261 235.176 403.93 237.001C401.599 238.825 399.819 241.177 398.569 243.936C397.319 246.696 395.539 249.047 393.207 250.872C390.876 252.696 388.173 253.857 385.185 254.417C382.213 254.97 379.494 256.138 377.162 257.962C374.831 259.787 373.051 262.138 371.801 264.898C370.551 267.658 368.771 270.009 366.44 271.834C364.109 273.658 361.406 274.819 358.417 275.379C355.446 275.932 352.726 277.1 350.395 278.924C348.064 280.749 346.284 283.1 345.034 285.86C343.784 288.619 342.004 290.971 339.673 292.795C337.341 294.62 334.639 295.781 331.65 296.341C328.678 296.894 325.959 298.062 323.627 299.886C321.296 301.71 319.516 304.062 318.266 306.822M491.84 154.532C490.59 157.292 488.81 159.644 486.479 161.468C484.148 163.292 481.445 164.453 478.456 165.013C475.485 165.566 472.765 166.734 470.434 168.559C468.103 170.383 466.323 172.735 465.073 175.494C463.823 178.254 462.043 180.606 459.712 182.43C457.38 184.254 454.677 185.415 451.689 185.975C448.701 186.535 445.998 187.696 443.666 189.521C441.335 191.345 439.555 193.697 438.305 196.456C437.055 199.216 435.275 201.567 432.944 203.392C430.613 205.216 427.91 206.377 424.922 206.937C421.95 207.49 419.23 208.658 416.899 210.482C414.568 212.307 412.788 214.658 411.538 217.418C410.288 220.178 408.508 222.529 406.177 224.354C403.845 226.178 401.143 227.339 398.154 227.899C395.182 228.452 392.463 229.62 390.132 231.444C387.8 233.269 386.02 235.62 384.77 238.38C383.52 241.139 381.74 243.491 379.409 245.315C377.078 247.14 374.375 248.301 371.387 248.861C368.415 249.414 365.695 250.582 363.364 252.406C361.033 254.23 359.253 256.582 358.003 259.342C356.753 262.101 354.973 264.453 352.642 266.277C350.311 268.102 347.608 269.263 344.619 269.823C341.636 270.371 338.928 271.544 336.597 273.368C334.265 275.192 332.486 277.544 331.236 280.304C330.053 282.896 328.419 285.126 326.291 286.893M478.052 148.981C476.802 151.74 475.022 154.092 472.69 155.916C470.359 157.741 467.656 158.902 464.668 159.462C461.696 160.015 458.977 161.183 456.645 163.007C454.314 164.831 452.534 167.183 451.284 169.943C450.034 172.702 448.254 175.054 445.923 176.878C443.592 178.702 440.889 179.863 437.9 180.423C434.929 180.976 432.209 182.144 429.878 183.969C427.547 185.793 425.767 188.145 424.517 190.904C423.267 193.664 421.487 196.016 419.156 197.84C416.824 199.664 414.121 200.825 411.133 201.385C408.161 201.938 405.442 203.106 403.11 204.931C400.779 206.755 398.999 209.107 397.749 211.866C396.499 214.626 394.719 216.978 392.388 218.802C390.057 220.626 387.354 221.787 384.366 222.347C381.394 222.9 378.674 224.068 376.343 225.892C374.012 227.717 372.232 230.069 370.982 232.828C369.732 235.588 367.952 237.939 365.621 239.764C363.289 241.588 360.587 242.749 357.598 243.309C354.626 243.862 351.907 245.03 349.576 246.854C347.244 248.679 345.464 251.03 344.214 253.79C342.964 256.549 341.185 258.901 338.853 260.726C338 261.396 337.1 261.977 336.151 262.47M464.266 143.43C463.016 146.189 461.236 148.541 458.905 150.366C456.573 152.19 453.87 153.351 450.882 153.911C447.91 154.464 445.191 155.632 442.859 157.456C440.528 159.281 438.748 161.632 437.498 164.392C436.248 167.151 434.468 169.503 432.137 171.327C429.806 173.152 427.103 174.313 424.115 174.873C421.143 175.426 418.423 176.594 416.092 178.418C413.761 180.242 411.981 182.594 410.731 185.354C409.481 188.113 407.701 190.465 405.37 192.289C403.038 194.114 400.336 195.275 397.347 195.835C394.375 196.387 391.656 197.556 389.325 199.38C386.993 201.204 385.213 203.556 383.963 206.315C382.713 209.075 380.933 211.427 378.602 213.251C376.271 215.075 373.568 216.236 370.58 216.796C367.608 217.349 364.888 218.517 362.557 220.342C360.226 222.166 358.446 224.518 357.196 227.277C355.946 230.037 354.166 232.389 351.835 234.213C350.189 235.508 348.347 236.46 346.366 237.106M450.454 137.869C449.204 140.628 447.424 142.98 445.093 144.804C442.762 146.629 440.059 147.79 437.07 148.35C434.099 148.903 431.379 150.071 429.048 151.895C426.716 153.719 424.936 156.071 423.687 158.831C422.437 161.59 420.657 163.942 418.325 165.766C415.994 167.591 413.291 168.751 410.303 169.311C407.314 169.872 404.611 171.033 402.28 172.857C399.949 174.681 398.169 177.033 396.919 179.792C395.669 182.552 393.889 184.904 391.558 186.728C389.227 188.552 386.524 189.713 383.535 190.273C380.564 190.826 377.844 191.994 375.513 193.819C373.182 195.643 371.402 197.995 370.152 200.754C368.902 203.514 367.122 205.866 364.79 207.69C362.459 209.514 359.756 210.675 356.768 211.235M436.665 132.317C435.415 135.076 433.635 137.428 431.304 139.253C428.973 141.077 426.27 142.238 423.282 142.798C420.298 143.346 417.59 144.519 415.259 146.343C412.928 148.168 411.148 150.519 409.898 153.279C408.648 156.038 406.868 158.39 404.537 160.214C402.205 162.039 399.503 163.2 396.514 163.76C393.542 164.313 390.823 165.481 388.492 167.305C386.16 169.129 384.38 171.481 383.13 174.241C381.881 177 380.101 179.352 377.769 181.176C375.438 183.001 372.735 184.162 369.747 184.722C368.876 184.885 368.026 185.098 367.198 185.362M422.879 126.766C421.63 129.526 419.85 131.877 417.518 133.702C415.187 135.526 412.484 136.687 409.496 137.247C406.524 137.8 403.804 138.968 401.473 140.792C399.142 142.617 397.362 144.969 396.112 147.728C394.862 150.488 393.082 152.839 390.751 154.664C388.42 156.488 385.717 157.649 382.728 158.209C380.867 158.556 379.105 159.138 377.491 159.974M409.079 121.209C407.829 123.968 406.049 126.32 403.717 128.145C401.386 129.969 398.683 131.13 395.695 131.69C392.723 132.243 390.004 133.411 387.672 135.235C387.531 135.345 387.39 135.455 387.26 135.569M472.412 -75.4638C471.162 -72.7043 469.382 -70.3526 467.051 -68.5282C464.72 -66.7039 462.017 -65.5429 459.029 -64.9829C456.057 -64.43 453.337 -63.2619 451.006 -61.4376C448.675 -59.6133 446.895 -57.2615 445.645 -54.502C444.395 -51.7425 442.615 -49.3907 440.284 -47.5664C437.952 -45.7421 435.25 -44.5811 432.261 -44.0211C429.273 -43.461 426.57 -42.3001 424.239 -40.4757C421.907 -38.6514 420.127 -36.2997 418.877 -33.5401C417.627 -30.7806 415.848 -28.4289 413.516 -26.6045C411.185 -24.7802 408.482 -23.6192 405.494 -23.0592C402.522 -22.5063 399.802 -21.3382 397.471 -19.5139C395.14 -17.6896 393.36 -15.3378 392.11 -12.5783C390.86 -9.81876 389.08 -7.467 386.749 -5.64268C384.418 -3.81836 381.715 -2.65739 378.726 -2.09736C375.755 -1.54448 373.035 -0.376349 370.704 1.44797C368.372 3.27229 366.593 5.62403 365.343 8.38356C364.093 11.1431 362.313 13.4949 359.981 15.3192C357.65 17.1435 354.947 18.3045 351.959 18.8645C348.987 19.4174 346.268 20.5855 343.936 22.4098C341.605 24.2341 339.825 26.5859 338.575 29.3454C337.325 32.1049 335.545 34.4567 333.214 36.281C330.883 38.1053 328.18 39.2663 325.191 39.8263C322.22 40.3792 319.5 41.5473 317.169 43.3717C314.838 45.196 313.058 47.5477 311.808 50.3073C310.558 53.0668 308.778 55.4185 306.447 57.2428C304.115 59.0672 301.412 60.2282 298.424 60.7882C295.452 61.3411 292.733 62.5092 290.401 64.3335C288.07 66.1578 286.29 68.5096 285.04 71.2691M464.394 -55.5467C462.266 -53.7793 460.627 -51.5373 459.445 -48.945C458.195 -46.1855 456.415 -43.8337 454.084 -42.0094C451.752 -40.1851 449.05 -39.0241 446.061 -38.4641C443.073 -37.9041 440.37 -36.7431 438.039 -34.9188C435.707 -33.0945 433.927 -30.7427 432.677 -27.9832C431.427 -25.2236 429.647 -22.8719 427.316 -21.0476C424.985 -19.2233 422.282 -18.0623 419.294 -17.5023C416.322 -16.9494 413.602 -15.7812 411.271 -13.9569C408.94 -12.1326 407.16 -9.78086 405.91 -7.02133C404.66 -4.26179 402.88 -1.91006 400.549 -0.0857345C398.218 1.73859 395.515 2.89958 392.526 3.4596C389.555 4.01249 386.835 5.18061 384.504 7.00493C382.172 8.82925 380.392 11.181 379.143 13.9405C377.893 16.7001 376.113 19.0518 373.781 20.8761C371.45 22.7004 368.747 23.8614 365.759 24.4214C362.787 24.9743 360.068 26.1424 357.736 27.9668C355.405 29.7911 353.625 32.1428 352.375 34.9024C351.125 37.6619 349.345 40.0136 347.014 41.838C344.683 43.6623 341.98 44.8233 338.991 45.3833C336.02 45.9362 333.3 47.1043 330.969 48.9286C328.638 50.7529 326.858 53.1047 325.608 55.8642C324.358 58.6237 322.578 60.9755 320.246 62.7998C317.915 64.6241 315.212 65.7851 312.224 66.3451C309.252 66.898 306.533 68.0662 304.201 69.8905C301.87 71.7148 300.09 74.0665 298.84 76.8261M454.61 -31.149C453.633 -30.6537 452.711 -30.0531 451.841 -29.3759C449.51 -27.5516 447.73 -25.1998 446.48 -22.4403C445.23 -19.6808 443.45 -17.329 441.119 -15.5047C438.788 -13.6804 436.085 -12.5194 433.097 -11.9594C430.125 -11.4065 427.405 -10.2384 425.074 -8.41404C422.743 -6.58972 420.963 -4.23798 419.713 -1.47845C418.463 1.28108 416.683 3.63282 414.352 5.45714C412.02 7.28146 409.318 8.44245 406.329 9.00248C403.357 9.55536 400.638 10.7235 398.307 12.5478C395.975 14.3721 394.195 16.7239 392.945 19.4834C391.696 22.2429 389.916 24.5947 387.584 26.419C385.253 28.2433 382.55 29.4043 379.562 29.9643C376.59 30.5172 373.87 31.6853 371.539 33.5097C369.208 35.334 367.428 37.6857 366.178 40.4452C364.928 43.2048 363.148 45.5565 360.817 47.3808C358.486 49.2052 355.783 50.3661 352.794 50.9262C349.823 51.4791 347.103 52.6472 344.772 54.4715C342.44 56.2958 340.661 58.6476 339.411 61.4071C338.161 64.1666 336.381 66.5184 334.049 68.3427C331.718 70.167 329.015 71.328 326.027 71.888C323.055 72.4409 320.336 73.609 318.004 75.4333C315.673 77.2577 313.893 79.6094 312.643 82.3689M444.343 -5.75048C442.35 -5.10927 440.516 -4.14004 438.858 -2.84992C436.526 -1.0256 434.746 1.32614 433.496 4.08567C432.246 6.8452 430.466 9.19695 428.135 11.0213C425.804 12.8456 423.101 14.0066 420.113 14.5666C417.141 15.1195 414.421 16.2876 412.09 18.1119C409.759 19.9362 407.979 22.288 406.729 25.0475C405.479 27.8071 403.699 30.1588 401.368 31.9831C399.037 33.8074 396.334 34.9684 393.345 35.5284C390.374 36.0813 387.654 37.2494 385.323 39.0738C382.991 40.8981 381.211 43.2498 379.961 46.0094C378.712 48.7689 376.932 51.1207 374.6 52.945C372.269 54.7693 369.566 55.9303 366.578 56.4903C363.606 57.0432 360.886 58.2113 358.555 60.0356C356.224 61.86 354.444 64.2117 353.194 66.9712C351.944 69.7307 350.164 72.0825 347.833 73.9068C345.502 75.7311 342.799 76.8921 339.81 77.4522C336.839 78.005 334.119 79.1732 331.788 80.9975C329.457 82.8218 327.677 85.1735 326.427 87.9331M433.929 20.116C430.957 20.6689 428.237 21.837 425.906 23.6613C423.575 25.4857 421.795 27.8374 420.545 30.5969C419.295 33.3565 417.515 35.7082 415.184 37.5325C412.853 39.3569 410.15 40.5178 407.161 41.0779C404.19 41.6307 401.47 42.7989 399.139 44.6232C396.808 46.4475 395.028 48.7992 393.778 51.5588C392.528 54.3183 390.748 56.6701 388.416 58.4944C386.085 60.3187 383.382 61.4797 380.394 62.0397C377.422 62.5926 374.703 63.7607 372.371 65.585C370.04 67.4094 368.26 69.7611 367.01 72.5206C365.76 75.2802 363.98 77.6319 361.649 79.4562C359.318 81.2806 356.615 82.4416 353.626 83.0016C350.655 83.5545 347.935 84.7226 345.604 86.5469C343.273 88.3712 341.493 90.723 340.243 93.4825M423.514 45.9816C422.686 46.2452 421.836 46.4585 420.96 46.6335C417.989 47.1864 415.269 48.3545 412.938 50.1788C410.606 52.0031 408.827 54.3549 407.577 57.1144C406.327 59.8739 404.547 62.2257 402.215 64.05C399.884 65.8743 397.181 67.0353 394.193 67.5953C391.221 68.1482 388.502 69.3163 386.17 71.1407C383.839 72.965 382.059 75.3167 380.809 78.0763C379.559 80.8358 377.779 83.1875 375.448 85.0119C373.117 86.8362 370.414 87.9972 367.425 88.5572C364.454 89.1101 361.734 90.2782 359.403 92.1025C357.072 93.9268 355.292 96.2786 354.042 99.0381M413.301 71.3462C411.654 72.1963 409.883 72.8022 407.992 73.1518C405.021 73.7047 402.301 74.8728 399.97 76.6971C397.639 78.5215 395.859 80.8732 394.609 83.6328C393.359 86.3923 391.579 88.744 389.247 90.5683C386.916 92.3927 384.213 93.5537 381.225 94.1137C378.253 94.6666 375.534 95.8347 373.202 97.659C370.871 99.4833 369.091 101.835 367.841 104.595M403.459 95.7905C403.317 95.9002 403.188 96.0147 403.047 96.1244C400.715 97.9487 398.013 99.1097 395.024 99.6697C392.052 100.223 389.333 101.391 387.002 103.215C384.67 105.039 382.89 107.391 381.64 110.151M458.613 -81.0197C457.363 -78.2602 455.583 -75.9084 453.252 -74.0841C450.921 -72.2598 448.218 -71.0988 445.229 -70.5388C442.258 -69.9859 439.538 -68.8178 437.207 -66.9934C434.876 -65.1691 433.096 -62.8174 431.846 -60.0579C430.596 -57.2983 428.816 -54.9466 426.485 -53.1223C424.153 -51.2979 421.451 -50.137 418.462 -49.5769C415.474 -49.0169 412.771 -47.8559 410.44 -46.0316C408.108 -44.2073 406.328 -41.8555 405.078 -39.096C403.828 -36.3365 402.048 -33.9847 399.717 -32.1604C397.386 -30.3361 394.683 -29.1751 391.695 -28.6151C388.723 -28.0622 386.003 -26.8941 383.672 -25.0698C381.341 -23.2454 379.561 -20.8937 378.311 -18.1342C377.061 -15.3746 375.281 -13.0229 372.95 -11.1986C370.618 -9.37424 367.916 -8.21325 364.927 -7.65322C361.955 -7.10034 359.236 -5.93221 356.905 -4.10789C354.573 -2.28357 352.793 0.0681687 351.543 2.8277C350.294 5.58723 348.514 7.93897 346.182 9.76329C343.851 11.5876 341.148 12.7486 338.16 13.3086C335.188 13.8615 332.468 15.0296 330.137 16.8539C327.806 18.6783 326.026 21.03 324.776 23.7896C323.526 26.5491 321.746 28.9008 319.415 30.7251C317.084 32.5495 314.381 33.7105 311.392 34.2705C308.421 34.8234 305.701 35.9915 303.37 37.8158C301.039 39.6401 299.259 41.9918 298.009 44.7514C296.759 47.5109 294.979 49.8627 292.647 51.687C290.316 53.5113 287.613 54.6723 284.625 55.2323C281.653 55.7852 278.934 56.9533 276.602 58.7777C274.271 60.602 272.491 62.9537 271.241 65.7132M444.812 -86.577C443.562 -83.8174 441.782 -81.4657 439.451 -79.6414C437.12 -77.8171 434.417 -76.6561 431.429 -76.0961C428.457 -75.5432 425.737 -74.3751 423.406 -72.5507C421.075 -70.7264 419.295 -68.3747 418.045 -65.6151C416.795 -62.8556 415.015 -60.5039 412.684 -58.6795C410.353 -56.8552 407.65 -55.6942 404.661 -55.1342C401.69 -54.5813 398.97 -53.4132 396.639 -51.5889C394.307 -49.7646 392.527 -47.4128 391.277 -44.6533C390.028 -41.8937 388.248 -39.542 385.916 -37.7177C383.585 -35.8934 380.882 -34.7324 377.894 -34.1724C374.922 -33.6195 372.202 -32.4514 369.871 -30.627C367.54 -28.8027 365.76 -26.451 364.51 -23.6914C363.26 -20.9319 361.48 -18.5801 359.149 -16.7558C356.818 -14.9315 354.115 -13.7705 351.126 -13.2105C348.155 -12.6576 345.435 -11.4895 343.104 -9.66517C340.773 -7.84085 338.993 -5.48911 337.743 -2.72958C336.493 0.0299528 334.713 2.38169 332.381 4.20601C330.05 6.03033 327.347 7.19132 324.359 7.75135C321.387 8.30423 318.668 9.47234 316.336 11.2967C314.005 13.121 312.225 15.4727 310.975 18.2323C309.725 20.9918 307.945 23.3435 305.614 25.1679C303.283 26.9922 300.58 28.1532 297.591 28.7132C294.62 29.2661 291.9 30.4342 289.569 32.2585C287.238 34.0828 285.458 36.4346 284.208 39.1941C282.958 41.9536 281.178 44.3054 278.847 46.1297C276.515 47.954 273.813 49.115 270.824 49.675C267.852 50.2279 265.133 51.396 262.801 53.2204C260.47 55.0447 258.69 57.3964 257.44 60.1559M431.026 -92.1277C429.777 -89.3682 427.997 -87.0165 425.665 -85.1921C423.334 -83.3678 420.631 -82.2068 417.643 -81.6468C414.671 -81.0939 411.951 -79.9258 409.62 -78.1015C407.289 -76.2772 405.509 -73.9254 404.259 -71.1659C403.009 -68.4063 401.229 -66.0546 398.898 -64.2303C396.567 -62.406 393.864 -61.245 390.875 -60.685C387.887 -60.1249 385.184 -58.9639 382.853 -57.1396C380.522 -55.3153 378.742 -52.9636 377.492 -50.204C376.242 -47.4445 374.462 -45.0927 372.13 -43.2684C369.799 -41.4441 367.096 -40.2831 364.108 -39.7231C361.136 -39.1702 358.417 -38.0021 356.085 -36.1778C353.754 -34.3535 351.974 -32.0017 350.724 -29.2422C349.474 -26.4826 347.694 -24.1309 345.363 -22.3066C343.032 -20.4823 340.329 -19.3213 337.34 -18.7613C334.369 -18.2084 331.649 -17.0402 329.318 -15.2159C326.987 -13.3916 325.207 -11.0399 323.957 -8.28033C322.707 -5.5208 320.927 -3.16904 318.596 -1.34472C316.264 0.479598 313.561 1.64057 310.573 2.2006C307.601 2.75348 304.882 3.92161 302.55 5.74593C300.219 7.57025 298.439 9.92199 297.189 12.6815C295.939 15.4411 294.159 17.7928 291.828 19.6171C289.497 21.4415 286.794 22.6024 283.806 23.1624C280.834 23.7153 278.114 24.8834 275.783 26.7078C273.452 28.5321 271.672 30.8838 270.422 33.6434C269.172 36.4029 267.392 38.7546 265.061 40.579C262.729 42.4033 260.027 43.5643 257.038 44.1243C254.066 44.6772 251.347 45.8453 249.016 47.6696C246.684 49.4939 244.904 51.8457 243.654 54.6052M417.226 -97.685C415.976 -94.9254 414.196 -92.5737 411.864 -90.7494C409.533 -88.9251 406.83 -87.7641 403.842 -87.2041C400.87 -86.6512 398.151 -85.4831 395.819 -83.6587C393.488 -81.8344 391.708 -79.4827 390.458 -76.7231C389.208 -73.9636 387.428 -71.6119 385.097 -69.7875C382.766 -67.9632 380.063 -66.8022 377.074 -66.2422C374.103 -65.6893 371.383 -64.5212 369.052 -62.6969C366.721 -60.8726 364.941 -58.5208 363.691 -55.7613C362.441 -53.0017 360.661 -50.65 358.33 -48.8257C355.998 -47.0014 353.295 -45.8404 350.307 -45.2804C347.335 -44.7275 344.616 -43.5594 342.284 -41.735C339.953 -39.9107 338.173 -37.559 336.923 -34.7994C335.673 -32.0399 333.893 -29.6882 331.562 -27.8638C329.231 -26.0395 326.528 -24.8785 323.54 -24.3185C320.568 -23.7656 317.848 -22.5975 315.517 -20.7732C313.186 -18.9489 311.406 -16.5971 310.156 -13.8376C308.906 -11.078 307.126 -8.7263 304.795 -6.90197C302.463 -5.07765 299.761 -3.91668 296.772 -3.35666C293.8 -2.80377 291.081 -1.63564 288.75 0.188678C286.418 2.013 284.638 4.36474 283.388 7.12427C282.138 9.8838 280.358 12.2355 278.027 14.0599C275.696 15.8842 272.993 17.0452 270.005 17.6052C267.033 18.1581 264.313 19.3262 261.982 21.1505C259.651 22.9748 257.871 25.3266 256.621 28.0861C255.371 30.8456 253.591 33.1974 251.26 35.0217C248.929 36.846 246.226 38.007 243.237 38.567C240.266 39.1199 237.546 40.288 235.215 42.1124C232.883 43.9367 231.103 46.2884 229.854 49.048M403.428 -103.241C402.178 -100.481 400.398 -98.1293 398.067 -96.305C395.736 -94.4807 393.033 -93.3197 390.045 -92.7596C387.073 -92.2068 384.353 -91.0386 382.022 -89.2143C379.691 -87.39 377.911 -85.0383 376.661 -82.2787C375.411 -79.5192 373.631 -77.1674 371.3 -75.3431C368.968 -73.5188 366.266 -72.3578 363.277 -71.7978C360.289 -71.2378 357.586 -70.0768 355.255 -68.2525C352.923 -66.4281 351.143 -64.0764 349.893 -61.3169C348.644 -58.5573 346.864 -56.2056 344.532 -54.3813C342.201 -52.557 339.498 -51.396 336.51 -50.8359C333.538 -50.2831 330.818 -49.1149 328.487 -47.2906C326.156 -45.4663 324.376 -43.1145 323.126 -40.355C321.876 -37.5955 320.096 -35.2437 317.765 -33.4194C315.434 -31.5951 312.731 -30.4341 309.742 -29.8741C306.771 -29.3212 304.051 -28.1531 301.72 -26.3288C299.389 -24.5044 297.609 -22.1527 296.359 -19.3932C295.109 -16.6336 293.329 -14.2819 290.997 -12.4576C288.666 -10.6332 285.963 -9.47227 282.975 -8.91224C280.003 -8.35936 277.284 -7.19123 274.952 -5.36691C272.621 -3.54259 270.841 -1.19085 269.591 1.56868C268.341 4.32822 266.561 6.67997 264.23 8.50429C261.899 10.3286 259.196 11.4896 256.207 12.0496C253.236 12.6025 250.516 13.7706 248.185 15.5949C245.854 17.4192 244.074 19.771 242.824 22.5305C241.574 25.2901 239.794 27.6418 237.463 29.4661C235.131 31.2904 232.428 32.4514 229.44 33.0114C226.468 33.5643 223.749 34.7325 221.417 36.5568C219.086 38.3811 217.306 40.7328 216.056 43.4924M389.628 -108.796C388.378 -106.037 386.598 -103.685 384.267 -101.86C381.936 -100.036 379.233 -98.8752 376.245 -98.3151C373.273 -97.7622 370.553 -96.5941 368.222 -94.7698C365.891 -92.9455 364.111 -90.5937 362.861 -87.8342C361.611 -85.0747 359.831 -82.7229 357.5 -80.8986C355.168 -79.0743 352.466 -77.9133 349.477 -77.3533C346.489 -76.7933 343.786 -75.6323 341.455 -73.8079C339.123 -71.9836 337.343 -69.6319 336.093 -66.8724C334.844 -64.1128 333.064 -61.7611 330.732 -59.9368C328.401 -58.1124 325.698 -56.9515 322.71 -56.3914C319.738 -55.8385 317.018 -54.6704 314.687 -52.8461C312.356 -51.0218 310.576 -48.67 309.326 -45.9105C308.076 -43.151 306.296 -40.7992 303.965 -38.9749C301.634 -37.1506 298.931 -35.9896 295.942 -35.4296C292.971 -34.8767 290.251 -33.7086 287.92 -31.8842C285.589 -30.0599 283.809 -27.7082 282.559 -24.9487C281.309 -22.1891 279.529 -19.8374 277.197 -18.0131C274.866 -16.1887 272.163 -15.0277 269.175 -14.4677C266.203 -13.9148 263.484 -12.7467 261.152 -10.9224C258.821 -9.09809 257.041 -6.74633 255.791 -3.9868C254.541 -1.22727 252.761 1.12447 250.43 2.94879C248.099 4.77311 245.396 5.9341 242.407 6.49413C239.436 7.04701 236.716 8.21512 234.385 10.0394C232.054 11.8638 230.274 14.2155 229.024 16.975C227.774 19.7346 225.994 22.0863 223.663 23.9106C221.331 25.735 218.628 26.8959 215.64 27.456C212.668 28.0089 209.949 29.177 207.617 31.0013C205.286 32.8256 203.506 35.1773 202.256 37.9369M375.831 -114.35C374.581 -111.591 372.801 -109.239 370.47 -107.415C368.138 -105.591 365.436 -104.43 362.447 -103.87C359.475 -103.317 356.756 -102.149 354.425 -100.324C352.093 -98.4999 350.313 -96.1481 349.063 -93.3886C347.813 -90.6291 346.033 -88.2773 343.702 -86.453C341.371 -84.6287 338.668 -83.4677 335.68 -82.9077C332.691 -82.3476 329.988 -81.1867 327.657 -79.3623C325.326 -77.538 323.546 -75.1863 322.296 -72.4267C321.046 -69.6672 319.266 -67.3155 316.935 -65.4911C314.604 -63.6668 311.901 -62.5059 308.912 -61.9458C305.94 -61.3929 303.221 -60.2248 300.89 -58.4005C298.558 -56.5762 296.778 -54.2244 295.528 -51.4649C294.279 -48.7054 292.499 -46.3536 290.167 -44.5293C287.836 -42.705 285.133 -41.544 282.145 -40.984C279.173 -40.4311 276.453 -39.263 274.122 -37.4386C271.791 -35.6143 270.011 -33.2626 268.761 -30.503C267.511 -27.7435 265.731 -25.3918 263.4 -23.5674C261.069 -21.7431 258.366 -20.5821 255.377 -20.0221C252.406 -19.4692 249.686 -18.3011 247.355 -16.4768C245.024 -14.6525 243.244 -12.3007 241.994 -9.5412C240.744 -6.78166 238.964 -4.42993 236.632 -2.6056C234.301 -0.781283 231.598 0.379706 228.61 0.93973C225.626 1.48781 222.919 2.66073 220.587 4.48505C218.256 6.30937 216.476 8.66111 215.226 11.4206C214.044 14.0129 212.41 16.243 210.282 18.0104M362.041 -119.904C360.792 -117.144 359.012 -114.793 356.68 -112.968C354.349 -111.144 351.646 -109.983 348.658 -109.423C345.686 -108.87 342.966 -107.702 340.635 -105.878C338.304 -104.053 336.524 -101.702 335.274 -98.9422C334.024 -96.1827 332.244 -93.8309 329.913 -92.0066C327.582 -90.1823 324.879 -89.0213 321.89 -88.4613C318.919 -87.9084 316.199 -86.7403 313.868 -84.9159C311.537 -83.0916 309.757 -80.7399 308.507 -77.9803C307.257 -75.2208 305.477 -72.8691 303.145 -71.0447C300.814 -69.2204 298.111 -68.0594 295.123 -67.4994C292.151 -66.9465 289.432 -65.7784 287.1 -63.9541C284.769 -62.1298 282.989 -59.778 281.739 -57.0185C280.489 -54.259 278.709 -51.9072 276.378 -50.0829C274.047 -48.2586 271.344 -47.0976 268.355 -46.5376C265.384 -45.9847 262.664 -44.8165 260.333 -42.9922C258.002 -41.1679 256.222 -38.8162 254.972 -36.0566C253.722 -33.2971 251.942 -30.9454 249.611 -29.121C247.279 -27.2967 244.576 -26.1357 241.588 -25.5757C238.616 -25.0228 235.897 -23.8547 233.565 -22.0304C231.234 -20.2061 229.454 -17.8543 228.204 -15.0948C226.954 -12.3353 225.174 -9.9835 222.843 -8.15918C221.99 -7.48906 221.09 -6.90754 220.141 -6.41463M348.256 -125.455C347.006 -122.695 345.226 -120.344 342.894 -118.519C340.563 -116.695 337.86 -115.534 334.872 -114.974C331.9 -114.421 329.181 -113.253 326.849 -111.429C324.518 -109.604 322.738 -107.252 321.488 -104.493C320.238 -101.733 318.458 -99.3817 316.127 -97.5573C313.796 -95.733 311.093 -94.572 308.104 -94.012C305.133 -93.4591 302.413 -92.291 300.082 -90.4667C297.751 -88.6424 295.971 -86.2906 294.721 -83.5311C293.471 -80.7716 291.691 -78.4198 289.36 -76.5955C287.028 -74.7712 284.325 -73.6102 281.337 -73.0502C278.365 -72.4973 275.646 -71.3292 273.314 -69.5048C270.983 -67.6805 269.203 -65.3288 267.953 -62.5692C266.703 -59.8097 264.923 -57.458 262.592 -55.6336C260.261 -53.8093 257.558 -52.6483 254.57 -52.0883C251.598 -51.5354 248.878 -50.3673 246.547 -48.543C244.216 -46.7187 242.436 -44.3669 241.186 -41.6074C239.936 -38.8479 238.156 -36.4961 235.825 -34.6718C234.179 -33.3769 232.337 -32.4244 230.355 -31.7784M334.444 -131.016C333.194 -128.256 331.414 -125.905 329.083 -124.08C326.751 -122.256 324.049 -121.095 321.06 -120.535C318.088 -119.982 315.369 -118.814 313.038 -116.99C310.706 -115.165 308.926 -112.814 307.676 -110.054C306.426 -107.295 304.646 -104.943 302.315 -103.119C299.984 -101.294 297.281 -100.133 294.293 -99.5732C291.304 -99.0132 288.601 -97.8522 286.27 -96.0279C283.939 -94.2036 282.159 -91.8518 280.909 -89.0923C279.659 -86.3328 277.879 -83.981 275.548 -82.1567C273.216 -80.3324 270.514 -79.1714 267.525 -78.6114C264.553 -78.0585 261.834 -76.8904 259.503 -75.066C257.171 -73.2417 255.391 -70.89 254.141 -68.1304C252.892 -65.3709 251.112 -63.0192 248.78 -61.1948C246.449 -59.3705 243.746 -58.2095 240.758 -57.6495M320.655 -136.568C319.405 -133.808 317.625 -131.456 315.294 -129.632C312.963 -127.808 310.26 -126.647 307.272 -126.087C304.288 -125.539 301.58 -124.366 299.249 -122.542C296.918 -120.717 295.138 -118.365 293.888 -115.606C292.638 -112.846 290.858 -110.495 288.527 -108.67C286.195 -106.846 283.493 -105.685 280.504 -105.125C277.532 -104.572 274.813 -103.404 272.482 -101.58C270.15 -99.7553 268.37 -97.4036 267.12 -94.6441C265.87 -91.8845 264.09 -89.5328 261.759 -87.7085C259.428 -85.8841 256.725 -84.7232 253.737 -84.1631C252.866 -84.0001 252.016 -83.7868 251.188 -83.5232M306.869 -142.119C305.619 -139.359 303.839 -137.007 301.508 -135.183C299.177 -133.359 296.474 -132.198 293.486 -131.638C290.514 -131.085 287.794 -129.917 285.463 -128.092C283.132 -126.268 281.352 -123.916 280.102 -121.157C278.852 -118.397 277.072 -116.045 274.741 -114.221C272.409 -112.397 269.707 -111.236 266.718 -110.676C264.857 -110.328 263.095 -109.746 261.481 -108.911M293.068 -147.676C291.819 -144.916 290.039 -142.565 287.707 -140.74C285.376 -138.916 282.673 -137.755 279.685 -137.195C276.713 -136.642 273.993 -135.474 271.662 -133.65C271.521 -133.54 271.379 -133.43 271.25 -133.316M395.444 115.695C394.194 118.454 392.414 120.806 390.083 122.631C387.752 124.455 385.049 125.616 382.06 126.176C379.089 126.729 376.369 127.897 374.038 129.721C371.707 131.545 369.927 133.897 368.677 136.657C367.427 139.416 365.647 141.768 363.316 143.592C360.984 145.417 358.281 146.578 355.293 147.138C352.305 147.698 349.602 148.859 347.27 150.683C344.939 152.507 343.159 154.859 341.909 157.619C340.659 160.378 338.879 162.73 336.548 164.554C334.217 166.379 331.514 167.54 328.526 168.1C325.554 168.652 322.834 169.821 320.503 171.645C318.172 173.469 316.392 175.821 315.142 178.58C313.892 181.34 312.112 183.692 309.781 185.516C307.449 187.34 304.747 188.501 301.758 189.061C298.786 189.614 296.067 190.782 293.736 192.607C291.404 194.431 289.624 196.783 288.374 199.542C287.124 202.302 285.344 204.654 283.013 206.478C280.682 208.302 277.979 209.463 274.991 210.023C272.019 210.576 269.299 211.744 266.968 213.569C264.637 215.393 262.857 217.745 261.607 220.504C260.357 223.264 258.577 225.615 256.246 227.44C253.915 229.264 251.212 230.425 248.223 230.985C245.252 231.538 242.532 232.706 240.201 234.53C237.869 236.355 236.089 238.706 234.84 241.466C233.59 244.226 231.81 246.577 229.478 248.402C227.147 250.226 224.444 251.387 221.456 251.947C218.484 252.5 215.764 253.668 213.433 255.492C211.102 257.317 209.322 259.668 208.072 262.428M387.424 135.609C385.297 137.377 383.658 139.619 382.475 142.211C381.225 144.97 379.445 147.322 377.114 149.146C374.783 150.971 372.08 152.132 369.092 152.692C366.103 153.252 363.4 154.413 361.069 156.237C358.738 158.061 356.958 160.413 355.708 163.173C354.458 165.932 352.678 168.284 350.347 170.108C348.016 171.933 345.313 173.094 342.324 173.654C339.353 174.207 336.633 175.375 334.302 177.199C331.97 179.023 330.19 181.375 328.941 184.135C327.691 186.894 325.911 189.246 323.579 191.07C321.248 192.894 318.545 194.055 315.557 194.615C312.585 195.168 309.865 196.337 307.534 198.161C305.203 199.985 303.423 202.337 302.173 205.096C300.923 207.856 299.143 210.208 296.812 212.032C294.481 213.856 291.778 215.017 288.789 215.577C285.818 216.13 283.098 217.298 280.767 219.123C278.436 220.947 276.656 223.299 275.406 226.058C274.156 228.818 272.376 231.17 270.044 232.994C267.713 234.818 265.01 235.979 262.022 236.539C259.05 237.092 256.331 238.26 253.999 240.085C251.668 241.909 249.888 244.261 248.638 247.02C247.388 249.78 245.608 252.131 243.277 253.956C240.946 255.78 238.243 256.941 235.254 257.501C232.283 258.054 229.563 259.222 227.232 261.046C224.901 262.871 223.121 265.222 221.871 267.982M377.641 160.008C376.664 160.503 375.742 161.104 374.872 161.781C372.541 163.605 370.761 165.957 369.511 168.716C368.261 171.476 366.481 173.828 364.15 175.652C361.819 177.476 359.116 178.637 356.128 179.197C353.156 179.75 350.436 180.918 348.105 182.743C345.774 184.567 343.994 186.919 342.744 189.678C341.494 192.438 339.714 194.79 337.383 196.614C335.051 198.438 332.349 199.599 329.36 200.159C326.388 200.712 323.669 201.88 321.338 203.705C319.006 205.529 317.226 207.881 315.976 210.64C314.726 213.4 312.946 215.751 310.615 217.576C308.284 219.4 305.581 220.561 302.593 221.121C299.621 221.674 296.901 222.842 294.57 224.666C292.239 226.491 290.459 228.843 289.209 231.602C287.959 234.362 286.179 236.713 283.848 238.538C281.517 240.362 278.814 241.523 275.825 242.083C272.854 242.636 270.134 243.804 267.803 245.628C265.471 247.453 263.691 249.804 262.442 252.564C261.192 255.323 259.412 257.675 257.08 259.499C254.749 261.324 252.046 262.485 249.058 263.045C246.086 263.598 243.367 264.766 241.035 266.59C238.704 268.414 236.924 270.766 235.674 273.526M367.374 185.406C365.381 186.048 363.546 187.017 361.888 188.307C359.557 190.131 357.777 192.483 356.527 195.242C355.277 198.002 353.497 200.354 351.166 202.178C348.835 204.002 346.132 205.163 343.144 205.723C340.172 206.276 337.452 207.444 335.121 209.269C332.79 211.093 331.01 213.445 329.76 216.204C328.51 218.964 326.73 221.316 324.399 223.14C322.067 224.964 319.365 226.125 316.376 226.685C313.404 227.238 310.685 228.406 308.354 230.231C306.022 232.055 304.242 234.407 302.992 237.166C301.742 239.926 299.962 242.277 297.631 244.102C295.3 245.926 292.597 247.087 289.609 247.647C286.637 248.2 283.917 249.368 281.586 251.192C279.255 253.017 277.475 255.369 276.225 258.128C274.975 260.888 273.195 263.239 270.864 265.064C268.533 266.888 265.83 268.049 262.841 268.609C259.87 269.162 257.15 270.33 254.819 272.154C252.487 273.979 250.707 276.33 249.458 279.09M356.959 211.272C353.988 211.825 351.268 212.993 348.937 214.817C346.605 216.642 344.825 218.993 343.576 221.753C342.326 224.512 340.546 226.864 338.214 228.688C335.883 230.513 333.18 231.674 330.192 232.234C327.22 232.787 324.5 233.955 322.169 235.779C319.838 237.603 318.058 239.955 316.808 242.715C315.558 245.474 313.778 247.826 311.447 249.65C309.116 251.475 306.413 252.636 303.424 253.196C300.453 253.749 297.733 254.917 295.402 256.741C293.071 258.565 291.291 260.917 290.041 263.677C288.791 266.436 287.011 268.788 284.679 270.612C282.348 272.436 279.645 273.597 276.657 274.158C273.685 274.71 270.966 275.879 268.634 277.703C266.303 279.527 264.523 281.879 263.273 284.638M346.545 237.138C345.716 237.402 344.867 237.615 343.991 237.79C341.019 238.343 338.3 239.511 335.969 241.336C333.637 243.16 331.857 245.512 330.607 248.271C329.358 251.031 327.578 253.383 325.246 255.207C322.915 257.031 320.212 258.192 317.224 258.752C314.252 259.305 311.532 260.473 309.201 262.297C306.87 264.122 305.09 266.474 303.84 269.233C302.59 271.993 300.81 274.344 298.479 276.169C296.148 277.993 293.445 279.154 290.456 279.714C287.485 280.267 284.765 281.435 282.434 283.259C280.103 285.084 278.323 287.435 277.073 290.195M336.332 262.503C334.685 263.353 332.913 263.959 331.023 264.309C328.051 264.862 325.332 266.03 323.001 267.854C320.669 269.678 318.889 272.03 317.639 274.79C316.389 277.549 314.609 279.901 312.278 281.725C309.947 283.55 307.244 284.71 304.256 285.271C301.284 285.823 298.564 286.992 296.233 288.816C293.902 290.64 292.122 292.992 290.872 295.751M326.489 286.946C326.348 287.056 326.219 287.171 326.077 287.28C323.746 289.105 321.043 290.266 318.055 290.826C315.083 291.379 312.363 292.547 310.032 294.371C307.701 296.195 305.921 298.547 304.671 301.307M381.644 110.137C380.394 112.897 378.614 115.248 376.283 117.073C373.952 118.897 371.249 120.058 368.26 120.618C365.289 121.171 362.569 122.339 360.238 124.163C357.907 125.988 356.127 128.339 354.877 131.099C353.627 133.858 351.847 136.21 349.516 138.035C347.184 139.859 344.481 141.02 341.493 141.58C338.505 142.14 335.802 143.301 333.47 145.125C331.139 146.95 329.359 149.301 328.109 152.061C326.859 154.82 325.079 157.172 322.748 158.996C320.417 160.821 317.714 161.982 314.726 162.542C311.754 163.095 309.034 164.263 306.703 166.087C304.372 167.911 302.592 170.263 301.342 173.023C300.092 175.782 298.312 178.134 295.981 179.958C293.649 181.783 290.947 182.944 287.958 183.504C284.986 184.056 282.267 185.225 279.936 187.049C277.604 188.873 275.824 191.225 274.574 193.984C273.324 196.744 271.544 199.096 269.213 200.92C266.882 202.744 264.179 203.905 261.191 204.465C258.219 205.018 255.499 206.186 253.168 208.011C250.837 209.835 249.057 212.187 247.807 214.946C246.557 217.706 244.777 220.058 242.446 221.882C240.115 223.706 237.412 224.867 234.423 225.427C231.452 225.98 228.732 227.148 226.401 228.973C224.069 230.797 222.289 233.149 221.04 235.908C219.79 238.668 218.01 241.019 215.678 242.844C213.347 244.668 210.644 245.829 207.656 246.389C204.684 246.942 201.965 248.11 199.633 249.934C197.302 251.759 195.522 254.11 194.272 256.87M367.843 104.58C366.593 107.339 364.813 109.691 362.482 111.515C360.151 113.34 357.448 114.501 354.46 115.061C351.488 115.614 348.768 116.782 346.437 118.606C344.106 120.43 342.326 122.782 341.076 125.542C339.826 128.301 338.046 130.653 335.715 132.477C333.383 134.302 330.681 135.463 327.692 136.023C324.72 136.576 322.001 137.744 319.67 139.568C317.338 141.392 315.558 143.744 314.308 146.504C313.058 149.263 311.278 151.615 308.947 153.439C306.616 155.263 303.913 156.424 300.925 156.984C297.953 157.537 295.233 158.705 292.902 160.53C290.571 162.354 288.791 164.706 287.541 167.465C286.291 170.225 284.511 172.577 282.18 174.401C279.849 176.225 277.146 177.386 274.157 177.946C271.186 178.499 268.466 179.667 266.135 181.492C263.803 183.316 262.023 185.668 260.774 188.427C259.524 191.187 257.744 193.539 255.412 195.363C253.081 197.187 250.378 198.348 247.39 198.908C244.418 199.461 241.698 200.629 239.367 202.453C237.036 204.278 235.256 206.63 234.006 209.389C232.756 212.149 230.976 214.5 228.645 216.325C226.314 218.149 223.611 219.31 220.622 219.87C217.651 220.423 214.931 221.591 212.6 223.415C210.269 225.24 208.489 227.591 207.239 230.351C205.989 233.11 204.209 235.462 201.877 237.287C199.546 239.111 196.843 240.272 193.855 240.832C190.883 241.385 188.164 242.553 185.832 244.377C183.501 246.202 181.721 248.553 180.471 251.313M354.057 99.0291C352.807 101.789 351.027 104.14 348.696 105.965C346.365 107.789 343.662 108.95 340.674 109.51C337.702 110.063 334.982 111.231 332.651 113.055C330.32 114.88 328.54 117.231 327.29 119.991C326.04 122.75 324.26 125.102 321.929 126.927C319.598 128.751 316.895 129.912 313.906 130.472C310.918 131.032 308.215 132.193 305.884 134.017C303.552 135.842 301.772 138.193 300.522 140.953C299.273 143.712 297.493 146.064 295.161 147.888C292.83 149.713 290.127 150.874 287.139 151.434C284.167 151.987 281.447 153.155 279.116 154.979C276.785 156.803 275.005 159.155 273.755 161.915C272.505 164.674 270.725 167.026 268.394 168.85C266.063 170.675 263.36 171.836 260.371 172.396C257.4 172.948 254.68 174.117 252.349 175.941C250.018 177.765 248.238 180.117 246.988 182.876C245.738 185.636 243.958 187.988 241.626 189.812C239.295 191.636 236.592 192.797 233.604 193.357C230.632 193.91 227.913 195.078 225.581 196.903C223.25 198.727 221.47 201.079 220.22 203.838C218.97 206.598 217.19 208.95 214.859 210.774C212.528 212.598 209.825 213.759 206.836 214.319C203.865 214.872 201.145 216.04 198.814 217.865C196.483 219.689 194.703 222.041 193.453 224.8C192.203 227.56 190.423 229.911 188.092 231.736C185.76 233.56 183.057 234.721 180.069 235.281C177.097 235.834 174.378 237.002 172.046 238.826C169.715 240.651 167.935 243.002 166.685 245.762M340.257 93.4718C339.007 96.2314 337.227 98.5831 334.895 100.407C332.564 102.232 329.861 103.393 326.873 103.953C323.901 104.506 321.181 105.674 318.85 107.498C316.519 109.322 314.739 111.674 313.489 114.434C312.239 117.193 310.459 119.545 308.128 121.369C305.797 123.194 303.094 124.355 300.105 124.915C297.134 125.467 294.414 126.636 292.083 128.46C289.752 130.284 287.972 132.636 286.722 135.396C285.472 138.155 283.692 140.507 281.36 142.331C279.029 144.155 276.326 145.316 273.338 145.876C270.366 146.429 267.647 147.597 265.315 149.422C262.984 151.246 261.204 153.598 259.954 156.357C258.704 159.117 256.924 161.469 254.593 163.293C252.262 165.117 249.559 166.278 246.57 166.838C243.599 167.391 240.879 168.559 238.548 170.384C236.217 172.208 234.437 174.56 233.187 177.319C231.937 180.079 230.157 182.431 227.826 184.255C225.494 186.079 222.792 187.24 219.803 187.8C216.831 188.353 214.112 189.521 211.781 191.345C209.449 193.17 207.669 195.522 206.419 198.281C205.169 201.041 203.389 203.392 201.058 205.217C198.727 207.041 196.024 208.202 193.036 208.762C190.064 209.315 187.344 210.483 185.013 212.307C182.682 214.132 180.902 216.483 179.652 219.243C178.402 222.002 176.622 224.354 174.291 226.178C171.959 228.003 169.257 229.164 166.268 229.724C163.296 230.277 160.577 231.445 158.246 233.269C155.914 235.093 154.134 237.445 152.884 240.205M326.459 87.9162C325.209 90.6758 323.429 93.0275 321.098 94.8519C318.767 96.6762 316.064 97.8372 313.076 98.3972C310.104 98.9501 307.384 100.118 305.053 101.943C302.722 103.767 300.942 106.119 299.692 108.878C298.442 111.638 296.662 113.989 294.331 115.814C291.999 117.638 289.297 118.799 286.308 119.359C283.32 119.919 280.617 121.08 278.286 122.904C275.954 124.729 274.174 127.08 272.924 129.84C271.674 132.6 269.894 134.951 267.563 136.776C265.232 138.6 262.529 139.761 259.541 140.321C256.569 140.874 253.849 142.042 251.518 143.866C249.187 145.691 247.407 148.042 246.157 150.802C244.907 153.561 243.127 155.913 240.796 157.737C238.464 159.562 235.762 160.723 232.773 161.283C229.801 161.836 227.082 163.004 224.751 164.828C222.419 166.652 220.639 169.004 219.389 171.764C218.14 174.523 216.36 176.875 214.028 178.699C211.697 180.524 208.994 181.685 206.006 182.245C203.034 182.797 200.314 183.966 197.983 185.79C195.652 187.614 193.872 189.966 192.622 192.725C191.372 195.485 189.592 197.837 187.261 199.661C184.93 201.485 182.227 202.646 179.238 203.206C176.267 203.759 173.547 204.927 171.216 206.752C168.885 208.576 167.105 210.928 165.855 213.687C164.605 216.447 162.825 218.799 160.493 220.623C158.162 222.447 155.459 223.608 152.471 224.168C149.499 224.721 146.78 225.889 144.448 227.714C142.117 229.538 140.337 231.89 139.087 234.649M312.659 82.3608C311.409 85.1203 309.629 87.4721 307.298 89.2964C304.967 91.1207 302.264 92.2817 299.275 92.8417C296.304 93.3946 293.584 94.5627 291.253 96.387C288.922 98.2114 287.142 100.563 285.892 103.323C284.642 106.082 282.862 108.434 280.531 110.258C278.199 112.083 275.496 113.244 272.508 113.804C269.52 114.364 266.817 115.525 264.485 117.349C262.154 119.173 260.374 121.525 259.124 124.284C257.874 127.044 256.094 129.396 253.763 131.22C251.432 133.044 248.729 134.205 245.741 134.765C242.769 135.318 240.049 136.486 237.718 138.311C235.387 140.135 233.607 142.487 232.357 145.246C231.107 148.006 229.327 150.358 226.996 152.182C224.664 154.006 221.962 155.167 218.973 155.727C216.001 156.28 213.282 157.448 210.951 159.273C208.619 161.097 206.839 163.449 205.589 166.208C204.339 168.968 202.559 171.319 200.228 173.144C197.897 174.968 195.194 176.129 192.206 176.689C189.234 177.242 186.514 178.41 184.183 180.234C181.852 182.059 180.072 184.411 178.822 187.17C177.572 189.93 175.792 192.281 173.461 194.106C171.13 195.93 168.427 197.091 165.438 197.651C162.467 198.204 159.747 199.372 157.416 201.196C155.084 203.021 153.304 205.372 152.055 208.132C150.805 210.891 149.025 213.243 146.693 215.067C144.362 216.892 141.659 218.053 138.671 218.613C135.699 219.166 132.98 220.334 130.648 222.158C128.317 223.982 126.537 226.334 125.287 229.094M298.861 76.8046C297.611 79.5641 295.831 81.9158 293.5 83.7402C291.168 85.5645 288.466 86.7255 285.477 87.2855C282.505 87.8384 279.786 89.0065 277.455 90.8308C275.123 92.6551 273.343 95.0069 272.093 97.7664C270.844 100.526 269.064 102.878 266.732 104.702C264.401 106.526 261.698 107.687 258.71 108.247C255.721 108.807 253.018 109.968 250.687 111.793C248.356 113.617 246.576 115.969 245.326 118.728C244.076 121.488 242.296 123.84 239.965 125.664C237.634 127.488 234.931 128.649 231.942 129.209C228.971 129.762 226.251 130.93 223.92 132.755C221.589 134.579 219.809 136.931 218.559 139.69C217.309 142.45 215.529 144.801 213.197 146.626C210.866 148.45 208.163 149.611 205.175 150.171C202.203 150.724 199.484 151.892 197.152 153.716C194.821 155.541 193.041 157.892 191.791 160.652C190.541 163.411 188.761 165.763 186.43 167.588C184.099 169.412 181.396 170.573 178.407 171.133C175.436 171.686 172.716 172.854 170.385 174.678C168.054 176.503 166.274 178.854 165.024 181.614C163.774 184.373 161.994 186.725 159.663 188.549C157.331 190.374 154.628 191.535 151.64 192.095C148.656 192.643 145.949 193.816 143.617 195.64C141.286 197.464 139.506 199.816 138.256 202.576C137.074 205.168 135.44 207.398 133.312 209.165M285.072 71.2528C283.822 74.0123 282.042 76.3641 279.711 78.1884C277.38 80.0127 274.677 81.1737 271.689 81.7337C268.717 82.2866 265.997 83.4547 263.666 85.279C261.335 87.1034 259.555 89.4551 258.305 92.2146C257.055 94.9742 255.275 97.3259 252.944 99.1502C250.612 100.975 247.91 102.136 244.921 102.696C241.949 103.248 239.23 104.417 236.899 106.241C234.567 108.065 232.787 110.417 231.537 113.176C230.288 115.936 228.508 118.288 226.176 120.112C223.845 121.936 221.142 123.097 218.154 123.657C215.182 124.21 212.462 125.378 210.131 127.203C207.8 129.027 206.02 131.379 204.77 134.138C203.52 136.898 201.74 139.25 199.409 141.074C197.078 142.898 194.375 144.059 191.386 144.619C188.415 145.172 185.695 146.34 183.364 148.165C181.033 149.989 179.253 152.341 178.003 155.1C176.753 157.86 174.973 160.211 172.641 162.036C170.31 163.86 167.607 165.021 164.619 165.581C161.647 166.134 158.928 167.302 156.596 169.126C154.265 170.951 152.485 173.303 151.235 176.062C149.985 178.822 148.205 181.173 145.874 182.998C145.021 183.668 144.12 184.249 143.172 184.742M271.287 65.702C270.037 68.4616 268.257 70.8133 265.925 72.6376C263.594 74.4619 260.891 75.6229 257.903 76.183C254.931 76.7358 252.211 77.904 249.88 79.7283C247.549 81.5526 245.769 83.9043 244.519 86.6639C243.269 89.4234 241.489 91.7751 239.158 93.5995C236.827 95.4238 234.124 96.5848 231.135 97.1448C228.164 97.6977 225.444 98.8658 223.113 100.69C220.782 102.514 219.002 104.866 217.752 107.626C216.502 110.385 214.722 112.737 212.39 114.561C210.059 116.386 207.356 117.547 204.368 118.107C201.396 118.66 198.677 119.828 196.345 121.652C194.014 123.476 192.234 125.828 190.984 128.588C189.734 131.347 187.954 133.699 185.623 135.523C183.292 137.347 180.589 138.508 177.6 139.068C174.629 139.621 171.909 140.79 169.578 142.614C167.247 144.438 165.467 146.79 164.217 149.549C162.967 152.309 161.187 154.661 158.856 156.485C157.21 157.78 155.368 158.732 153.386 159.378M257.475 60.1408C256.225 62.9003 254.445 65.2521 252.114 67.0764C249.782 68.9007 247.079 70.0617 244.091 70.6217C241.119 71.1746 238.4 72.3427 236.068 74.1671C233.737 75.9914 231.957 78.3431 230.707 81.1027C229.457 83.8622 227.677 86.2139 225.346 88.0383C223.015 89.8626 220.312 91.0236 217.324 91.5836C214.335 92.1436 211.632 93.3046 209.301 95.1289C206.97 96.9532 205.19 99.305 203.94 102.065C202.69 104.824 200.91 107.176 198.579 109C196.247 110.824 193.545 111.985 190.556 112.545C187.584 113.098 184.865 114.266 182.534 116.091C180.202 117.915 178.422 120.267 177.172 123.026C175.922 125.786 174.142 128.138 171.811 129.962C169.48 131.786 166.777 132.947 163.789 133.507M243.686 54.589C242.436 57.3485 240.656 59.7003 238.325 61.5246C235.994 63.3489 233.291 64.5099 230.303 65.0699C227.319 65.618 224.611 66.7909 222.28 68.6153C219.949 70.4396 218.169 72.7913 216.919 75.5508C215.669 78.3104 213.889 80.6621 211.558 82.4864C209.226 84.3108 206.524 85.4717 203.535 86.0318C200.563 86.5847 197.844 87.7528 195.513 89.5771C193.181 91.4014 191.401 93.7532 190.151 96.5127C188.901 99.2722 187.121 101.624 184.79 103.448C182.459 105.273 179.756 106.434 176.768 106.994C175.897 107.157 175.047 107.37 174.219 107.634M229.9 49.0383C228.65 51.7978 226.87 54.1496 224.539 55.9739C222.208 57.7982 219.505 58.9592 216.516 59.5192C213.545 60.0721 210.825 61.2403 208.494 63.0646C206.163 64.8889 204.383 67.2406 203.133 70.0002C201.883 72.7597 200.103 75.1114 197.772 76.9358C195.44 78.7601 192.738 79.9211 189.749 80.4811C187.888 80.8284 186.126 81.4104 184.512 82.2462M216.099 43.481C214.85 46.2405 213.07 48.5923 210.738 50.4166C208.407 52.2409 205.704 53.4019 202.716 53.9619C199.744 54.5148 197.024 55.6829 194.693 57.5072C194.552 57.6169 194.41 57.7266 194.281 57.8411" stroke="#666666" stroke-miterlimit="10"/>
</g>
<path fill-rule="evenodd" clip-rule="evenodd" d="M384.344 196.08C398.588 178.806 405.449 160.157 402.717 141.748C401.817 135.682 399.913 129.893 397.097 124.414C418.453 141.113 431 161.497 431 183.5C431 199.239 424.579 214.15 413.107 227.477C407.517 215.476 397.619 204.901 384.344 196.08ZM418.241 248.068C419.048 264.504 412.404 281.007 399.873 296.434C408.956 302.542 416.43 309.481 421.992 317.143C427.839 307.177 431 296.543 431 285.5C431 272.29 426.477 259.664 418.241 248.068ZM429.061 372.625C411.733 417.572 343.175 458.644 256.704 471.474C255.738 471.617 254.774 471.757 253.811 471.892L265.623 489.404C358.607 483.862 431 440.352 431 387.5C431 382.448 430.339 377.481 429.061 372.625Z" fill="#4C4C4C"/>
</g>
</svg>
