<svg width="221" height="132" fill="none" xmlns="http://www.w3.org/2000/svg">
  <mask id="a" mask-type="alpha" maskUnits="userSpaceOnUse" x="0" y="0" width="221" height="132">
    <path d="M.5 132V0h220v132H.5z" fill="#212121"/>
  </mask>
  <g mask="url(#a)" stroke="#FFFFFF" stroke-miterlimit="10">
    <path d="M13.4 123.496l-10.617-14.43M28.1 114.064a2.204 2.204 0 10-4.382.487 2.204 2.204 0 004.381-.487zM47.334 104.123l-7.055-4.024 3.467-6.769-7.043-3.635M49.044 119.541c-.898 2.05 2.588 3.614 1.69 5.665-.897 2.05-4.592.431-5.489 2.482-.897 2.05 2.78 3.656 1.883 5.706-.897 2.051-4.397.504-5.294 2.554M66.871 117.563l-10.63-14.428M87.963 146.437l-10.615-14.43M81.431 108.145a2.204 2.204 0 00-2.434-1.946 2.203 2.203 0 10.486 4.379 2.205 2.205 0 001.948-2.433zM100.659 98.206l-7.055-4.025 3.482-6.77-7.043-3.635M102.366 113.624c-.898 2.05 2.588 3.614 1.691 5.665-.898 2.05-4.592.431-5.49 2.482-.897 2.05 2.781 3.656 1.883 5.706-.897 2.051-4.396.504-5.294 2.554M120.196 111.645l-10.616-14.43M141.438 140.503l-10.631-14.428M134.89 102.213a2.204 2.204 0 00-2.434-1.946 2.203 2.203 0 10.486 4.378 2.203 2.203 0 001.948-2.432zM154.118 92.274l-7.055-4.025 3.482-6.77-7.043-3.635M173.81 129.109a2.205 2.205 0 00-4.383.487 2.204 2.204 0 002.434 1.946 2.204 2.204 0 001.949-2.433zM155.825 107.692c-.898 2.05 2.588 3.614 1.691 5.665-.898 2.05-4.592.431-5.49 2.482-.897 2.05 2.781 3.656 1.883 5.706-.897 2.051-4.396.504-5.294 2.554M173.655 105.714l-10.616-14.43M194.762 134.587l-10.615-14.43M188.218 96.296a2.204 2.204 0 00-2.434-1.946 2.204 2.204 0 102.434 1.946zM207.456 86.356l-7.056-4.024 3.468-6.769-7.044-3.635M209.165 101.773c-.898 2.051 2.588 3.615 1.691 5.665-.898 2.051-4.593.432-5.49 2.482-.897 2.051 2.78 3.656 1.883 5.707-.897 2.05-4.397.503-5.294 2.554M226.991 99.795l-10.632-14.428M-2.35 62.815l7.194-16.406M-.133 23.552a2.204 2.204 0 00-2.435-1.946 2.204 2.204 0 102.435 1.946zM18.893 91.672l7.194-16.406M21.253 52.394a2.204 2.204 0 00-2.434-1.947 2.204 2.204 0 102.434 1.947zM31.568 43.443l5.664-5.28-4.253-5.802 5.799-5.326M20.954 29.013l-10.616-14.43M51.105 56.883l7.21-16.408M53.328 17.62a2.204 2.204 0 00-2.435-1.946 2.204 2.204 0 102.435 1.946zM43.91 73.288c-1.324-1.803 1.708-4.325.383-6.129-1.325-1.804-4.575.586-5.9-1.218-1.325-1.804 1.911-4.177.586-5.98-1.325-1.804-4.374.703-5.7-1.1M35.356-3.8c-.897 2.05 2.588 3.615 1.691 5.666-.897 2.05-4.592.431-5.49 2.482-.897 2.05 2.78 3.655 1.884 5.706-.898 2.05-4.397.503-5.295 2.554M72.215 85.755l7.194-16.405M74.587 46.475a2.204 2.204 0 00-2.434-1.946 2.204 2.204 0 102.434 1.946zM84.91 37.524l5.664-5.28-4.269-5.8 5.8-5.325M74.276 23.096L63.66 8.666M104.447 50.964l7.194-16.406M106.65 11.703a2.204 2.204 0 00-2.435-1.946 2.204 2.204 0 102.435 1.946zM97.233 67.371c-1.325-1.803 1.707-4.325.382-6.129-1.325-1.804-4.575.586-5.9-1.218-1.325-1.804 1.911-4.177.586-5.98-1.325-1.804-4.374.704-5.7-1.1M88.678-9.717c-.897 2.05 2.589 3.615 1.691 5.666-.897 2.05-4.592.431-5.49 2.482-.897 2.05 2.781 3.655 1.884 5.706-.898 2.05-4.397.503-5.294 2.554M125.674 79.823l7.209-16.407M128.046 40.543a2.204 2.204 0 00-4.383.486 2.204 2.204 0 002.435 1.947 2.204 2.204 0 001.948-2.433zM138.369 31.592l5.664-5.28-4.269-5.8 5.799-5.326M127.752 17.163L117.121 2.735M157.906 45.032l7.194-16.406M160.124 5.77a2.205 2.205 0 00-4.383.486 2.205 2.205 0 004.383-.487zM150.692 61.44c-1.325-1.805 1.707-4.326.382-6.13-1.325-1.804-4.575.586-5.9-1.218-1.325-1.804 1.911-4.177.586-5.98-1.325-1.804-4.374.703-5.699-1.1M142.137-15.649c-.897 2.05 2.589 3.615 1.691 5.665-.897 2.05-4.592.432-5.489 2.482-.898 2.051 2.78 3.656 1.883 5.707-.898 2.05-4.397.503-5.294 2.554M179.012 73.905l7.194-16.406M181.373 34.626a2.205 2.205 0 00-4.384.486 2.205 2.205 0 004.384-.486zM191.688 25.675l5.663-5.28-4.253-5.801 5.799-5.326M181.073 11.246l-10.616-14.43M211.225 39.115l7.209-16.407M213.447-.148a2.204 2.204 0 00-2.435-1.946 2.204 2.204 0 102.435 1.946zM204.03 55.52c-1.325-1.803 1.707-4.325.382-6.129-1.325-1.803-4.575.586-5.9-1.218-1.325-1.804 1.911-4.176.586-5.98-1.325-1.804-4.374.704-5.699-1.1"/>
  </g>
</svg>
