<svg width="220" height="132" fill="none" xmlns="http://www.w3.org/2000/svg">
  <mask id="a" mask-type="alpha" maskUnits="userSpaceOnUse" x="0" y="0" width="220" height="132">
    <path d="M0 132V0h220v132H0z" fill="#212121"/>
  </mask>
  <g mask="url(#a)" stroke="#FFFFFF" stroke-miterlimit="10" stroke-linejoin="round">
    <path d="M1.313 65.723h22.794M1.313 6.383h22.794M1.313 26.164h22.794M1.313 45.941h22.794M35.613 65.723H58.36M35.613 6.383H58.36M35.613 26.164H58.36M35.613 45.941H58.36M-15.867 55.836H6.977M-15.867 16.277H6.977M-15.867 36.055H6.977M18.395 55.836h22.844M18.395 16.277h22.844M18.395 36.055h22.844M69.926 65.723h22.696M69.924 6.383H92.62M69.926 26.164h22.696M69.926 45.941h22.696M52.744 55.836H75.49M52.744 16.277H75.49M52.744 36.055H75.49M87.006 55.836h22.745M87.006 16.277h22.745M87.006 36.055h22.745M217.77 75.125h-22.795M217.77 94.906h-22.795M217.77 114.684h-22.795M183.469 75.125h-22.746M183.469 94.906h-22.746M183.469 114.684h-22.746M234.949 124.57h-22.844M234.949 85.012h-22.844M234.949 104.793h-22.844M200.688 124.57h-22.845M200.688 85.012h-22.845M200.688 104.793h-22.845M149.158 75.125h-22.696M149.158 94.906h-22.696M149.158 114.684h-22.696M166.338 124.57h-22.745M166.336 85.012h-22.745M166.336 104.793h-22.745M132.076 124.57h-22.745M132.076 85.012h-22.745M234.949 65.793h-22.844M200.688 65.793h-22.845M166.338 65.793h-22.745M132.076 65.793h-22.745M132.076 104.793h-22.745M109.33 65.723h22.844M109.33 6.383h22.844M109.33 26.164h22.844M109.33 45.941h22.844M143.641 65.723h22.794M143.641 6.383h22.794M143.641 26.164h22.794M143.641 45.941h22.794M177.941 65.723h22.746M177.941 6.383h22.746M177.941 26.164h22.746M177.941 45.941h22.746M126.461 55.836h22.844M126.461 16.277h22.844M126.461 36.055h22.844M160.723 55.836h22.844M160.723 16.277h22.844M160.723 36.055h22.844M212.252 65.723h22.696M212.252 6.383h22.696M212.252 26.164h22.696M212.252 45.941h22.696M195.072 55.836h22.746M195.072 16.277h22.746M195.072 36.055h22.746M109.752 75.125H86.908M109.752 94.906H86.908M109.752 114.684H86.908M75.441 75.125H52.647M75.441 94.906H52.647M75.441 114.684H52.647M41.14 75.125H18.396M41.14 94.906H18.396M41.14 114.684H18.396M92.621 124.57H69.777M92.621 85.012H69.777M92.621 104.793H69.777M58.36 124.57H35.514M58.36 85.012H35.514M58.36 104.793H35.514M6.83 75.125h-22.696M6.83 94.906h-22.696M6.83 114.684h-22.696M24.01 124.57H1.264M24.008 85.012H1.262M24.008 104.793H1.262M92.621 65.793H69.777M58.36 65.793H35.514M24.01 65.793H1.264"/>
  </g>
</svg>
