<svg width="220" height="132" fill="none" xmlns="http://www.w3.org/2000/svg">
  <mask id="a" mask-type="alpha" maskUnits="userSpaceOnUse" x="0" y="0" width="220" height="132">
    <path d="M0 132V0h220v132H0z" fill="#212121"/>
  </mask>
  <g mask="url(#a)" stroke="#231F20" stroke-miterlimit="10" stroke-linejoin="round">
    <path d="M-16.143 103.787L2.434 85.211M.012 119.941l18.576-18.576M16.168 136.096l18.576-18.576M-5.969 142.086l18.657-18.657M60.342 124.228l18.536-18.536M11.879 75.766L30.415 57.23M28.035 91.92l18.536-18.536M44.188 108.074l18.535-18.536M38.238 130.186l18.577-18.576M-10.223 81.724L8.354 63.147M5.93 97.877l18.576-18.576M22.084 114.032L40.66 95.456M66.219 102.205l18.576-18.576M17.758 53.742l18.576-18.576M33.91 69.897L52.486 51.32M50.066 86.05l18.577-18.575M-4.219 59.668l18.536-18.536M1.65 37.636L20.227 19.06M-14.502 21.482L4.074 2.906M225.316 103.738l-18.576 18.576M231.305 81.602l-18.657 18.656M197.293 131.76l-18.536 18.536M203.252 109.656l-18.576 18.576M219.406 125.81l-18.576 18.576M216.791-16.858L198.134 1.8M232.945-.704l-18.657 18.657M237.23 59.627l-18.616 18.616M188.768 11.164l-18.617 18.617M204.924 27.318l-18.617 18.617M221.076 43.472L202.46 62.09M209.219 87.64l-18.576 18.576M160.754 39.178l-18.576 18.576M176.91 55.331l-18.576 18.577M193.062 71.486l-18.576 18.576M210.873 5.206l-18.657 18.657M227.027 21.36L208.37 40.017M215.199 65.496l-18.657 18.657M182.893 33.188l-18.657 18.656M199.045 49.341l-18.657 18.657M181.195 115.662l-18.535 18.536M132.732 67.2l-18.535 18.535M148.889 83.353l-18.536 18.536M165.041 99.508l-18.536 18.536M187.146 93.55l-18.576 18.576M154.838 61.241l-18.576 18.576M170.992 77.395l-18.576 18.577M159.164 121.531l-18.576 18.576M126.855 89.223l-18.576 18.576M195.18-10.488L176.523 8.169M167.199 17.493L148.542 36.15M139.145 45.547l-18.577 18.577M111.16 73.528L92.584 92.104M143.01 105.377l-18.576 18.576M92.525 92.045l18.657-18.657M44.065 43.583L62.72 24.926M60.217 59.737L78.874 41.08M76.373 75.891L95.03 57.234M120.547 64.024l18.616-18.617M72.084 15.561L90.701-3.056M88.24 31.715L106.857 13.1M104.393 47.87l18.616-18.617M148.561 36.01l18.576-18.576M116.252 3.702l18.576-18.576M132.408 19.856L150.984 1.28M98.443 69.982L117.1 51.325M49.982 21.519L68.64 2.862M66.135 37.673l18.657-18.657M82.29 53.828l18.656-18.657M126.424 42l18.657-18.656M94.115 9.692l18.657-18.657M110.271 25.846L128.928 7.19M176.582 7.989l18.536-18.536M154.479 13.946L173.055-4.63M27.967 27.485L46.624 8.828M11.81 11.33L30.468-7.325M33.875 5.413l18.657-18.657M100.551 99.382L81.894 118.04M116.705 115.537l-18.657 18.657M132.857 131.691l-18.656 18.657M72.527 127.404l-18.616 18.617M94.633 121.446l-18.657 18.657M78.94 105.752l-18.657 18.657"/>
  </g>
</svg>
