<svg width="220" height="132" fill="none" xmlns="http://www.w3.org/2000/svg">
  <mask id="a" mask-type="alpha" maskUnits="userSpaceOnUse" x="0" y="0" width="220" height="132">
    <path d="M0 132V0h220v132H0z" fill="#212121"/>
  </mask>
  <g mask="url(#a)" stroke="#FFFFFF" stroke-miterlimit="10">
    <path d="M34.955 1.385l15.008 8.673M19.948 1.385L15.46 7.462 9.067 3.771l-4.128 6.287M94.988 1.385l15.008 8.673M79.98 1.385l-4.487 6.077L69.1 3.771l-4.127 6.287M155.02 1.385l15.008 8.673M140.012 1.385l-4.487 6.077-6.394-3.691-4.127 6.287M215.053 1.385l15.008 8.673M200.043 1.385l-4.487 6.077-6.394-3.691-4.127 6.287M-10.068 18.717L4.94 27.39M34.955 36.049l15.008 8.658M34.955 18.717l-4.487 6.077-6.393-3.691-4.128 6.287M19.948 36.049l-4.488 6.077-6.393-3.691-4.128 6.272M49.965 18.717l15.008 8.673M94.988 36.049l15.008 8.658M94.989 18.717L90.5 24.794l-6.393-3.691-4.127 6.287M79.98 36.049l-4.487 6.077-6.393-3.691-4.127 6.272M109.996 18.717l15.008 8.673M155.02 36.049l15.008 8.658M155.02 18.717l-4.488 6.077-6.393-3.691-4.127 6.287M140.012 36.049l-4.487 6.077-6.394-3.691-4.127 6.272M170.027 18.717l15.008 8.673M215.053 36.049l15.008 8.658M215.053 18.717l-4.487 6.077-6.394-3.691-4.127 6.287M200.043 36.049l-4.487 6.077-6.394-3.691-4.127 6.272M-10.068 53.38L4.94 62.04M34.955 70.697l15.008 8.674M34.955 53.38l-4.487 6.078-6.393-3.691-4.128 6.272M19.948 70.697L15.46 76.79l-6.393-3.692-4.128 6.273M49.965 53.38l15.008 8.66M94.988 70.697l15.008 8.674M94.989 53.38L90.5 59.459l-6.393-3.691-4.127 6.272M79.98 70.697l-4.487 6.093-6.393-3.692-4.127 6.273M109.996 53.38l15.008 8.66M155.02 70.697l15.008 8.674M155.02 53.38l-4.488 6.078-6.393-3.691-4.127 6.272M140.012 70.697l-4.487 6.093-6.394-3.692-4.127 6.273M170.027 53.38l15.008 8.66M215.053 70.697l15.008 8.674M215.053 53.38l-4.487 6.078-6.394-3.691-4.127 6.272M200.043 70.697l-4.487 6.093-6.394-3.692-4.127 6.273M-10.068 88.03L4.94 96.702M34.955 105.361l15.008 8.659M34.955 88.03l-4.487 6.077-6.393-3.692-4.128 6.288M19.948 105.361l-4.488 6.078-6.393-3.692-4.128 6.273M49.965 88.03l15.008 8.673M94.988 105.361l15.008 8.659M94.989 88.03L90.5 94.106l-6.393-3.692-4.127 6.288M79.98 105.361l-4.487 6.078-6.393-3.692-4.127 6.273M109.996 88.03l15.008 8.673M155.02 105.361l15.008 8.659M155.02 88.03l-4.488 6.077-6.393-3.692-4.127 6.288M140.012 105.361l-4.487 6.078-6.394-3.692-4.127 6.273M170.027 88.03l15.008 8.673M215.053 105.361l15.008 8.659M215.053 88.03l-4.487 6.077-6.394-3.692-4.127 6.288M200.043 105.361l-4.487 6.078-6.394-3.692-4.127 6.273M-10.068 122.693l15.008 8.659M34.955 122.693l-4.487 6.078-6.393-3.692-4.128 6.273M49.965 122.693l15.008 8.659M94.989 122.693l-4.488 6.078-6.393-3.692-4.127 6.273M109.996 122.693l15.008 8.659M155.02 122.693l-4.488 6.078-6.393-3.692-4.127 6.273M170.027 122.693l15.008 8.659M215.053 122.693l-4.487 6.078-6.394-3.692-4.127 6.273"/>
  </g>
</svg>
