<svg width="220" height="132" fill="none" xmlns="http://www.w3.org/2000/svg">
  <mask id="a" mask-type="alpha" maskUnits="userSpaceOnUse" x="0" y="0" width="220" height="132">
    <path d="M0 132V0h220v132H0z" fill="#212121"/>
  </mask>
  <g mask="url(#a)" fill="#FFFFFF">
    <path d="M4.31 3.947h-1v5.62h1v-5.62z"/>
    <path d="M6.62 6.267H1v1h5.62v-1zM24.31 3.947h-1v5.62h1v-5.62z"/>
    <path d="M26.62 6.267H21v1h5.62v-1zM64.31 3.947h-1v5.62h1v-5.62z"/>
    <path d="M66.62 6.267H61v1h5.62v-1zM44.31 3.947h-1v5.62h1v-5.62z"/>
    <path d="M46.62 6.267H41v1h5.62v-1zM4.31 15.497h-1v5.62h1v-5.62z"/>
    <path d="M6.62 17.807H1v1h5.62v-1zM24.31 15.497h-1v5.62h1v-5.62z"/>
    <path d="M26.62 17.807H21v1h5.62v-1zM64.31 15.497h-1v5.62h1v-5.62z"/>
    <path d="M66.62 17.807H61v1h5.62v-1zM44.31 15.497h-1v5.62h1v-5.62z"/>
    <path d="M46.62 17.807H41v1h5.62v-1zM4.31 27.047h-1v5.62h1v-5.62z"/>
    <path d="M6.62 29.357H1v1h5.62v-1zM24.31 27.047h-1v5.62h1v-5.62z"/>
    <path d="M26.62 29.357H21v1h5.62v-1zM64.31 27.047h-1v5.62h1v-5.62z"/>
    <path d="M66.62 29.357H61v1h5.62v-1zM44.31 27.047h-1v5.62h1v-5.62z"/>
    <path d="M46.62 29.357H41v1h5.62v-1zM4.31 38.597h-1v5.62h1v-5.62z"/>
    <path d="M6.62 40.907H1v1h5.62v-1zM24.31 38.597h-1v5.62h1v-5.62z"/>
    <path d="M26.62 40.907H21v1h5.62v-1zM64.31 38.597h-1v5.62h1v-5.62z"/>
    <path d="M66.62 40.907H61v1h5.62v-1zM44.31 38.597h-1v5.62h1v-5.62z"/>
    <path d="M46.62 40.907H41v1h5.62v-1zM4.31 50.147h-1v5.62h1v-5.62z"/>
    <path d="M6.62 52.457H1v1h5.62v-1zM24.31 50.147h-1v5.62h1v-5.62z"/>
    <path d="M26.62 52.457H21v1h5.62v-1zM64.31 50.147h-1v5.62h1v-5.62z"/>
    <path d="M66.62 52.457H61v1h5.62v-1zM44.31 50.147h-1v5.62h1v-5.62z"/>
    <path d="M46.62 52.457H41v1h5.62v-1zM4.31 61.687h-1v5.62h1v-5.62z"/>
    <path d="M6.62 64.007H1v1h5.62v-1zM24.31 61.687h-1v5.62h1v-5.62z"/>
    <path d="M26.62 64.007H21v1h5.62v-1zM64.31 61.687h-1v5.62h1v-5.62z"/>
    <path d="M66.62 64.007H61v1h5.62v-1zM44.31 61.687h-1v5.62h1v-5.62z"/>
    <path d="M46.62 64.007H41v1h5.62v-1zM4.31 73.237h-1v5.62h1v-5.62z"/>
    <path d="M6.62 75.547H1v1h5.62v-1zM24.31 73.237h-1v5.62h1v-5.62z"/>
    <path d="M26.62 75.547H21v1h5.62v-1zM64.31 73.237h-1v5.62h1v-5.62z"/>
    <path d="M66.62 75.547H61v1h5.62v-1zM44.31 73.237h-1v5.62h1v-5.62z"/>
    <path d="M46.62 75.547H41v1h5.62v-1zM4.31 87.117h-1v5.62h1v-5.62z"/>
    <path d="M6.62 89.427H1v1h5.62v-1zM24.31 87.117h-1v5.62h1v-5.62z"/>
    <path d="M26.62 89.427H21v1h5.62v-1zM64.31 87.117h-1v5.62h1v-5.62z"/>
    <path d="M66.62 89.427H61v1h5.62v-1zM44.31 87.117h-1v5.62h1v-5.62z"/>
    <path d="M46.62 89.427H41v1h5.62v-1zM4.31 98.667h-1v5.62h1v-5.62z"/>
    <path d="M6.62 100.977H1v1h5.62v-1zM24.31 98.667h-1v5.62h1v-5.62z"/>
    <path d="M26.62 100.977H21v1h5.62v-1zM64.31 98.667h-1v5.62h1v-5.62z"/>
    <path d="M66.62 100.977H61v1h5.62v-1zM44.31 98.667h-1v5.62h1v-5.62z"/>
    <path d="M46.62 100.977H41v1h5.62v-1zM4.31 110.217h-1v5.62h1v-5.62z"/>
    <path d="M6.62 112.527H1v1h5.62v-1zM24.31 110.217h-1v5.62h1v-5.62z"/>
    <path d="M26.62 112.527H21v1h5.62v-1zM64.31 110.217h-1v5.62h1v-5.62z"/>
    <path d="M66.62 112.527H61v1h5.62v-1zM44.31 110.217h-1v5.62h1v-5.62z"/>
    <path d="M46.62 112.527H41v1h5.62v-1zM4.31 121.757h-1v5.62h1v-5.62z"/>
    <path d="M6.62 124.077H1v1h5.62v-1zM24.31 121.757h-1v5.62h1v-5.62z"/>
    <path d="M26.62 124.077H21v1h5.62v-1zM64.31 121.757h-1v5.62h1v-5.62z"/>
    <path d="M66.62 124.077H61v1h5.62v-1zM44.31 121.757h-1v5.62h1v-5.62z"/>
    <path d="M46.62 124.077H41v1h5.62v-1zM104.311 3.947h-1v5.62h1v-5.62z"/>
    <path d="M106.62 6.267H101v1h5.62v-1zM84.31 3.947h-1v5.62h1v-5.62z"/>
    <path d="M86.62 6.267H81v1h5.62v-1zM124.311 3.947h-1v5.62h1v-5.62z"/>
    <path d="M126.62 6.267H121v1h5.62v-1zM164.311 3.947h-1v5.62h1v-5.62z"/>
    <path d="M166.62 6.267H161v1h5.62v-1zM144.311 3.947h-1v5.62h1v-5.62z"/>
    <path d="M146.62 6.267H141v1h5.62v-1zM184.311 3.947h-1v5.62h1v-5.62z"/>
    <path d="M186.62 6.267H181v1h5.62v-1zM204.311 3.947h-1v5.62h1v-5.62z"/>
    <path d="M206.62 6.267H201v1h5.62v-1zM104.311 15.497h-1v5.62h1v-5.62z"/>
    <path d="M106.62 17.807H101v1h5.62v-1zM84.31 15.497h-1v5.62h1v-5.62z"/>
    <path d="M86.62 17.807H81v1h5.62v-1zM124.311 15.497h-1v5.62h1v-5.62z"/>
    <path d="M126.62 17.807H121v1h5.62v-1zM164.311 15.497h-1v5.62h1v-5.62z"/>
    <path d="M166.62 17.807H161v1h5.62v-1zM144.311 15.497h-1v5.62h1v-5.62z"/>
    <path d="M146.62 17.807H141v1h5.62v-1zM184.311 15.497h-1v5.62h1v-5.62z"/>
    <path d="M186.62 17.807H181v1h5.62v-1zM204.311 15.497h-1v5.62h1v-5.62z"/>
    <path d="M206.62 17.807H201v1h5.62v-1zM104.311 27.047h-1v5.62h1v-5.62z"/>
    <path d="M106.62 29.357H101v1h5.62v-1zM84.31 27.047h-1v5.62h1v-5.62z"/>
    <path d="M86.62 29.357H81v1h5.62v-1zM124.311 27.047h-1v5.62h1v-5.62z"/>
    <path d="M126.62 29.357H121v1h5.62v-1zM164.311 27.047h-1v5.62h1v-5.62z"/>
    <path d="M166.62 29.357H161v1h5.62v-1zM144.311 27.047h-1v5.62h1v-5.62z"/>
    <path d="M146.62 29.357H141v1h5.62v-1zM184.311 27.047h-1v5.62h1v-5.62z"/>
    <path d="M186.62 29.357H181v1h5.62v-1zM204.311 27.047h-1v5.62h1v-5.62z"/>
    <path d="M206.62 29.357H201v1h5.62v-1zM104.311 38.597h-1v5.62h1v-5.62z"/>
    <path d="M106.62 40.907H101v1h5.62v-1zM84.31 38.597h-1v5.62h1v-5.62z"/>
    <path d="M86.62 40.907H81v1h5.62v-1zM124.311 38.597h-1v5.62h1v-5.62z"/>
    <path d="M126.62 40.907H121v1h5.62v-1zM164.311 38.597h-1v5.62h1v-5.62z"/>
    <path d="M166.62 40.907H161v1h5.62v-1zM144.311 38.597h-1v5.62h1v-5.62z"/>
    <path d="M146.62 40.907H141v1h5.62v-1zM184.311 38.597h-1v5.62h1v-5.62z"/>
    <path d="M186.62 40.907H181v1h5.62v-1zM204.311 38.597h-1v5.62h1v-5.62z"/>
    <path d="M206.62 40.907H201v1h5.62v-1zM104.311 50.147h-1v5.62h1v-5.62z"/>
    <path d="M106.62 52.457H101v1h5.62v-1zM84.31 50.147h-1v5.62h1v-5.62z"/>
    <path d="M86.62 52.457H81v1h5.62v-1zM124.311 50.147h-1v5.62h1v-5.62z"/>
    <path d="M126.62 52.457H121v1h5.62v-1zM164.311 50.147h-1v5.62h1v-5.62z"/>
    <path d="M166.62 52.457H161v1h5.62v-1zM144.311 50.147h-1v5.62h1v-5.62z"/>
    <path d="M146.62 52.457H141v1h5.62v-1zM184.311 50.147h-1v5.62h1v-5.62z"/>
    <path d="M186.62 52.457H181v1h5.62v-1zM204.311 50.147h-1v5.62h1v-5.62z"/>
    <path d="M206.62 52.457H201v1h5.62v-1zM104.311 61.687h-1v5.62h1v-5.62z"/>
    <path d="M106.62 64.007H101v1h5.62v-1zM84.31 61.687h-1v5.62h1v-5.62z"/>
    <path d="M86.62 64.007H81v1h5.62v-1zM124.311 61.687h-1v5.62h1v-5.62z"/>
    <path d="M126.62 64.007H121v1h5.62v-1zM164.311 61.687h-1v5.62h1v-5.62z"/>
    <path d="M166.62 64.007H161v1h5.62v-1zM144.311 61.687h-1v5.62h1v-5.62z"/>
    <path d="M146.62 64.007H141v1h5.62v-1zM184.311 61.687h-1v5.62h1v-5.62z"/>
    <path d="M186.62 64.007H181v1h5.62v-1zM204.311 61.687h-1v5.62h1v-5.62z"/>
    <path d="M206.62 64.007H201v1h5.62v-1zM104.311 73.237h-1v5.62h1v-5.62z"/>
    <path d="M106.62 75.547H101v1h5.62v-1zM84.31 73.237h-1v5.62h1v-5.62z"/>
    <path d="M86.62 75.547H81v1h5.62v-1zM124.311 73.237h-1v5.62h1v-5.62z"/>
    <path d="M126.62 75.547H121v1h5.62v-1zM164.311 73.237h-1v5.62h1v-5.62z"/>
    <path d="M166.62 75.547H161v1h5.62v-1zM144.311 73.237h-1v5.62h1v-5.62z"/>
    <path d="M146.62 75.547H141v1h5.62v-1zM184.311 73.237h-1v5.62h1v-5.62z"/>
    <path d="M186.62 75.547H181v1h5.62v-1zM204.311 73.237h-1v5.62h1v-5.62z"/>
    <path d="M206.62 75.547H201v1h5.62v-1zM104.311 87.117h-1v5.62h1v-5.62z"/>
    <path d="M106.62 89.427H101v1h5.62v-1zM84.31 87.117h-1v5.62h1v-5.62z"/>
    <path d="M86.62 89.427H81v1h5.62v-1zM124.311 87.117h-1v5.62h1v-5.62z"/>
    <path d="M126.62 89.427H121v1h5.62v-1zM164.311 87.117h-1v5.62h1v-5.62z"/>
    <path d="M166.62 89.427H161v1h5.62v-1zM144.311 87.117h-1v5.62h1v-5.62z"/>
    <path d="M146.62 89.427H141v1h5.62v-1zM184.311 87.117h-1v5.62h1v-5.62z"/>
    <path d="M186.62 89.427H181v1h5.62v-1zM204.311 87.117h-1v5.62h1v-5.62z"/>
    <path d="M206.62 89.427H201v1h5.62v-1zM104.311 98.667h-1v5.62h1v-5.62z"/>
    <path d="M106.62 100.977H101v1h5.62v-1zM84.31 98.667h-1v5.62h1v-5.62z"/>
    <path d="M86.62 100.977H81v1h5.62v-1zM124.311 98.667h-1v5.62h1v-5.62z"/>
    <path d="M126.62 100.977H121v1h5.62v-1zM164.311 98.667h-1v5.62h1v-5.62z"/>
    <path d="M166.62 100.977H161v1h5.62v-1zM144.311 98.667h-1v5.62h1v-5.62z"/>
    <path d="M146.62 100.977H141v1h5.62v-1zM184.311 98.667h-1v5.62h1v-5.62z"/>
    <path d="M186.62 100.977H181v1h5.62v-1zM204.311 98.667h-1v5.62h1v-5.62z"/>
    <path d="M206.62 100.977H201v1h5.62v-1zM104.311 110.217h-1v5.62h1v-5.62z"/>
    <path d="M106.62 112.527H101v1h5.62v-1zM84.31 110.217h-1v5.62h1v-5.62z"/>
    <path d="M86.62 112.527H81v1h5.62v-1zM124.311 110.217h-1v5.62h1v-5.62z"/>
    <path d="M126.62 112.527H121v1h5.62v-1zM164.311 110.217h-1v5.62h1v-5.62z"/>
    <path d="M166.62 112.527H161v1h5.62v-1zM144.311 110.217h-1v5.62h1v-5.62z"/>
    <path d="M146.62 112.527H141v1h5.62v-1zM184.311 110.217h-1v5.62h1v-5.62z"/>
    <path d="M186.62 112.527H181v1h5.62v-1zM204.311 110.217h-1v5.62h1v-5.62z"/>
    <path d="M206.62 112.527H201v1h5.62v-1zM104.311 121.757h-1v5.62h1v-5.62z"/>
    <path d="M106.62 124.077H101v1h5.62v-1zM84.31 121.757h-1v5.62h1v-5.62z"/>
    <path d="M86.62 124.077H81v1h5.62v-1zM124.311 121.757h-1v5.62h1v-5.62z"/>
    <path d="M126.62 124.077H121v1h5.62v-1zM164.311 121.757h-1v5.62h1v-5.62z"/>
    <path d="M166.62 124.077H161v1h5.62v-1zM144.311 121.757h-1v5.62h1v-5.62z"/>
    <path d="M146.62 124.077H141v1h5.62v-1zM184.311 121.757h-1v5.62h1v-5.62z"/>
    <path d="M186.62 124.077H181v1h5.62v-1zM204.311 121.757h-1v5.62h1v-5.62z"/>
    <path d="M206.62 124.077H201v1h5.62v-1z"/>
  </g>
</svg>
