<svg width="220" height="132" fill="none" xmlns="http://www.w3.org/2000/svg">
  <mask id="a" mask-type="alpha" maskUnits="userSpaceOnUse" x="0" y="0" width="220" height="132">
    <path d="M0 132V0h220v132H0z" fill="#212121"/>
  </mask>
  <g mask="url(#a)" stroke="#231F20" stroke-miterlimit="10" stroke-linejoin="round">
    <path d="M155.169 120.534a6.353 6.353 0 006.357 6.357 6.36 6.36 0 006.357-6.357M133.148 120.534a6.352 6.352 0 006.357 6.357 6.352 6.352 0 006.356-6.357M111.125 120.534a6.352 6.352 0 006.356 6.357 6.352 6.352 0 006.357-6.357M89.103 120.53a6.353 6.353 0 006.357 6.357 6.352 6.352 0 006.356-6.357M67.082 120.53a6.352 6.352 0 006.356 6.357 6.352 6.352 0 006.357-6.357M45.06 120.528a6.352 6.352 0 006.357 6.357 6.352 6.352 0 006.356-6.357M23.025 120.53a6.352 6.352 0 006.357 6.357 6.353 6.353 0 006.356-6.357M1.001 120.53a6.352 6.352 0 006.357 6.357 6.352 6.352 0 006.357-6.357M155.173 101.448a6.353 6.353 0 006.357 6.357 6.353 6.353 0 006.357-6.357M133.15 101.448a6.352 6.352 0 006.357 6.357 6.352 6.352 0 006.356-6.357M111.126 101.448a6.353 6.353 0 006.357 6.357 6.352 6.352 0 006.357-6.357M89.105 101.448a6.352 6.352 0 006.357 6.357 6.352 6.352 0 006.356-6.357M67.084 101.444a6.352 6.352 0 006.356 6.357 6.353 6.353 0 006.357-6.357M45.06 101.448a6.352 6.352 0 006.357 6.357 6.352 6.352 0 006.356-6.357M23.027 101.448a6.352 6.352 0 006.357 6.357 6.352 6.352 0 006.356-6.357M1.003 101.448a6.352 6.352 0 006.357 6.357 6.352 6.352 0 006.357-6.357M155.173 82.38a6.352 6.352 0 006.357 6.356 6.352 6.352 0 006.357-6.356M133.148 82.384a6.352 6.352 0 006.357 6.356 6.352 6.352 0 006.356-6.356M111.126 82.384a6.352 6.352 0 006.357 6.356 6.352 6.352 0 006.357-6.356M89.103 82.384a6.352 6.352 0 006.357 6.356 6.352 6.352 0 006.356-6.356M67.084 82.376a6.352 6.352 0 006.356 6.356 6.352 6.352 0 006.357-6.356M45.06 82.38a6.352 6.352 0 006.357 6.356 6.352 6.352 0 006.356-6.356M23.025 82.38a6.352 6.352 0 006.357 6.356 6.352 6.352 0 006.356-6.356M1.003 82.378a6.352 6.352 0 006.357 6.356 6.352 6.352 0 006.357-6.356M155.177 63.298a6.352 6.352 0 006.357 6.356 6.36 6.36 0 006.357-6.356M133.154 63.301a6.352 6.352 0 006.357 6.357 6.352 6.352 0 006.356-6.357M111.128 63.305a6.352 6.352 0 006.357 6.357 6.352 6.352 0 006.357-6.357M89.107 63.305a6.352 6.352 0 006.357 6.357 6.352 6.352 0 006.356-6.357M67.087 63.301a6.352 6.352 0 006.357 6.357 6.352 6.352 0 006.357-6.357M45.062 63.301a6.352 6.352 0 006.357 6.357 6.352 6.352 0 006.356-6.357M23.027 63.301a6.352 6.352 0 006.357 6.357 6.352 6.352 0 006.356-6.357M1.005 63.301a6.352 6.352 0 006.357 6.357 6.352 6.352 0 006.357-6.357M155.173 44.221a6.352 6.352 0 006.357 6.357 6.352 6.352 0 006.357-6.357M133.152 44.223a6.352 6.352 0 006.357 6.357 6.352 6.352 0 006.356-6.357M111.126 44.227a6.352 6.352 0 006.357 6.357 6.352 6.352 0 006.357-6.357M89.105 44.227a6.352 6.352 0 006.357 6.357 6.352 6.352 0 006.356-6.357M67.084 44.223a6.352 6.352 0 006.356 6.357 6.352 6.352 0 006.357-6.357M45.062 44.22a6.352 6.352 0 006.357 6.356 6.352 6.352 0 006.356-6.357M23.025 44.227a6.352 6.352 0 006.357 6.357 6.352 6.352 0 006.356-6.357M1.003 44.223A6.352 6.352 0 007.36 50.58a6.352 6.352 0 006.357-6.357M155.169 25.155a6.352 6.352 0 006.357 6.357 6.352 6.352 0 006.357-6.357M133.146 25.155a6.352 6.352 0 006.357 6.357 6.352 6.352 0 006.356-6.357M111.125 25.151a6.352 6.352 0 006.356 6.357 6.352 6.352 0 006.357-6.357M89.101 25.157a6.352 6.352 0 006.357 6.357 6.352 6.352 0 006.356-6.357M67.08 25.153a6.352 6.352 0 006.356 6.357 6.352 6.352 0 006.357-6.357M45.058 25.155a6.352 6.352 0 006.357 6.357 6.352 6.352 0 006.357-6.357M23.019 25.159a6.352 6.352 0 006.357 6.357 6.352 6.352 0 006.356-6.357M1 25.155a6.352 6.352 0 006.356 6.357 6.352 6.352 0 006.357-6.357M155.171 6.085a6.352 6.352 0 006.357 6.356 6.352 6.352 0 006.357-6.356M133.146 6.093a6.352 6.352 0 006.357 6.356 6.352 6.352 0 006.356-6.356M111.126 6.089a6.352 6.352 0 006.357 6.356 6.352 6.352 0 006.357-6.356M89.101 6.093a6.352 6.352 0 006.357 6.356 6.352 6.352 0 006.356-6.356M67.082 6.089a6.352 6.352 0 006.356 6.356 6.352 6.352 0 006.357-6.356M45.058 6.085a6.352 6.352 0 006.357 6.356 6.352 6.352 0 006.357-6.356M23.023 6.09a6.352 6.352 0 006.357 6.357 6.352 6.352 0 006.356-6.356M1.001 6.09a6.352 6.352 0 006.357 6.357 6.352 6.352 0 006.357-6.356M199.025 120.53a6.352 6.352 0 006.357 6.357 6.352 6.352 0 006.356-6.357M177.001 120.53a6.353 6.353 0 006.357 6.357 6.352 6.352 0 006.357-6.357M199.027 101.448a6.352 6.352 0 006.357 6.357 6.352 6.352 0 006.356-6.357M177.003 101.448a6.353 6.353 0 006.357 6.357 6.353 6.353 0 006.357-6.357M199.025 82.38a6.352 6.352 0 006.357 6.356 6.352 6.352 0 006.356-6.356M177.003 82.378a6.353 6.353 0 006.357 6.356 6.353 6.353 0 006.357-6.356M199.027 63.301a6.352 6.352 0 006.357 6.357 6.352 6.352 0 006.356-6.357M177.005 63.301a6.352 6.352 0 006.357 6.357 6.352 6.352 0 006.357-6.357M199.025 44.227a6.352 6.352 0 006.357 6.357 6.352 6.352 0 006.356-6.357M177.003 44.223a6.352 6.352 0 006.357 6.357 6.352 6.352 0 006.357-6.357M199.019 25.159a6.352 6.352 0 006.357 6.357 6.352 6.352 0 006.356-6.357M177 25.155a6.352 6.352 0 006.356 6.357 6.352 6.352 0 006.357-6.357M199.023 6.09a6.352 6.352 0 006.357 6.357 6.352 6.352 0 006.356-6.356M177.001 6.09a6.353 6.353 0 006.357 6.357 6.352 6.352 0 006.357-6.356"/>
  </g>
</svg>
