<svg width="220" height="132" fill="none" xmlns="http://www.w3.org/2000/svg">
  <mask id="a" mask-type="alpha" maskUnits="userSpaceOnUse" x="0" y="0" width="220" height="132">
    <path d="M0 132V0h220v132H0z" fill="#212121"/>
  </mask>
  <g mask="url(#a)" stroke="#FFFFFF" stroke-miterlimit="10" stroke-linecap="round" stroke-linejoin="round">
    <path d="M-39.924 169.081v-6.2h11.548v-6.199h11.548v-6.2H-5.28v-6.2H6.268v-6.194h11.548v-6.199h11.548M-39.924 150.483v-6.199h11.548v-6.194h11.548v-6.2H-5.28v-6.199H6.268v-6.2h11.548v-6.194h11.548M-39.924 131.889v-6.199h11.548v-6.2h11.548v-6.194H-5.28v-6.199H6.268v-6.2h11.548M-16.828 101.2v-6.194H-5.28v-6.2H6.268v-6.2h11.548v-6.199h11.548M-39.924 95.006v-6.2h11.548v-6.2h11.548v-6.199H-5.28v-6.2H6.268v-6.194h11.548v-6.199h11.548M-39.924 76.409v-6.2h11.548v-6.194h11.548v-6.2H-5.28v-6.2H6.268v-6.199h11.548v-6.194h11.548M-39.924 57.815v-6.2h11.548v-6.2h11.548v-6.194H-5.28v-6.2H6.268v-6.199h11.548"/>
    <path d="M17.816 101.202v-6.195h11.548M-16.828 26.776v-6.194H-5.28v-6.2H6.268V8.184h11.548v-6.2h11.548M-39.924 20.582v-6.2h11.548V8.184h11.548v-6.2H-5.28v-6.2H6.268v-6.193h11.548v-6.2h11.548M-39.924 1.985v-6.2h11.548v-6.194h11.548v-6.2H-5.28v-6.199H6.268v-6.2h11.548v-6.194h11.548M17.816 26.778v-6.194h11.548M29.363 169.268v-6.199h11.548v-6.195H52.46v-6.199h11.548v-6.2h11.548v-6.199h11.548v-6.194h11.548M29.363 150.674v-6.2h11.548v-6.199H52.46v-6.194h11.548v-6.2h11.548v-6.199h11.548M29.363 132.081v-6.2h11.548v-6.199H52.46M52.459 119.451v-6.195h11.548v-6.199h11.548v-6.2h11.548v-6.2h11.548M29.363 113.256v-6.199h11.548v-6.2H52.46v-6.2h11.548v-6.199h11.548v-6.194h11.548v-6.2h11.548M29.363 94.66v-6.2h11.548v-6.194H52.46v-6.2h11.548v-6.2h11.548v-6.2h11.548v-6.193h11.548M29.363 76.065v-6.2h11.548v-6.199H52.46v-6.194h11.548v-6.2h11.548v-6.2h11.548M29.363 57.472v-6.2h11.548v-6.2H52.46M87.103 119.452v-6.194h11.549"/>
    <path d="M52.459 45.561v-6.194h11.548v-6.2h11.548v-6.199h11.548v-6.2h11.548M29.363 39.367v-6.2h11.548v-6.199H52.46v-6.2h11.548V14.57h11.548V8.375h11.548v-6.2h11.548M29.363 20.77v-6.2h11.548V8.377H52.46v-6.2h11.548v-6.199h11.548v-6.2h11.548v-6.193h11.548M29.363 2.176v-6.2h11.548v-6.2H52.46v-6.193h11.548v-6.2h11.548v-6.2h11.548M87.103 45.563v-6.194h11.549M122.096 82.433V76.24h11.548v-6.2h11.548V63.84h11.548v-6.2h11.548M99 76.24v-6.2h11.548v-6.2h11.548v-6.2h11.548v-6.199h11.548v-6.194h11.548v-6.2h11.548M99 57.642v-6.2h11.548v-6.194h11.548v-6.2h11.548V32.85h11.548v-6.2h11.548v-6.193h11.548M99 39.048v-6.2h11.548V26.65h11.548v-6.194h11.548v-6.2h11.548v-6.2h11.548M99 20.455v-6.2h11.548v-6.2h11.548M156.74 82.435V76.24h11.548"/>
    <path d="M122.096 8.09V1.896h11.548v-6.2h11.548v-6.2h11.548v-6.2h11.548M99 1.896v-6.2h11.548v-6.2h11.548v-6.2h11.548v-6.199h11.548v-6.194h11.548v-6.2h11.548M156.74 8.091V1.897h11.548M122.096 157.125v-6.194h11.548v-6.199h11.548v-6.2h11.548v-6.199h11.548M99 150.931v-6.199h11.548v-6.2h11.548v-6.199h11.548v-6.2h11.548v-6.194h11.548v-6.2h11.548M99 132.334v-6.2h11.548v-6.194h11.548v-6.199h11.548v-6.2h11.548v-6.199h11.548v-6.195h11.548M99 113.74v-6.2h11.548v-6.199h11.548v-6.194h11.548v-6.2h11.548v-6.2h11.548M99 95.147v-6.2h11.548v-6.2h11.548M191.674 45.13v-6.195h11.548v-6.2h11.548v-6.199h11.548v-6.2h11.548M168.578 38.935v-6.2h11.548v-6.199h11.548v-6.2h11.548v-6.2h11.548V7.944h11.548v-6.2h11.548M168.578 20.338v-6.2h11.548V7.944h11.548v-6.2h11.548v-6.199h11.548v-6.2h11.548v-6.194h11.548M168.578 1.744v-6.2h11.548v-6.2h11.548v-6.193h11.548v-6.2h11.548v-6.2h11.548M168.578 169.37v-6.2h11.548v-6.194h11.548v-6.2h11.548v-6.199h11.548v-6.2h11.548v-6.194h11.548M168.578 150.776v-6.2h11.548v-6.2h11.548v-6.194h11.548v-6.199h11.548v-6.2h11.548M168.578 132.182v-6.199h11.548v-6.2h11.548M191.674 119.738v-6.194h11.548v-6.2h11.548v-6.2h11.548v-6.2h11.548M168.578 113.544v-6.2h11.548v-6.2h11.548v-6.2h11.548v-6.199h11.548v-6.194h11.548v-6.2h11.548M168.578 94.946v-6.2h11.548v-6.193h11.548v-6.2h11.548v-6.2h11.548v-6.199h11.548V57.76h11.548M168.578 76.352v-6.2h11.548v-6.199h11.548V57.76h11.548v-6.2h11.548v-6.2h11.548M168.578 57.759v-6.2h11.548v-6.2h11.548"/>
  </g>
</svg>
