<svg width="220" height="132" fill="none" xmlns="http://www.w3.org/2000/svg">
  <mask id="a" mask-type="alpha" maskUnits="userSpaceOnUse" x="0" y="0" width="220" height="132">
    <path d="M0 132V0h220v132H0z" fill="#212121"/>
  </mask>
  <g mask="url(#a)" stroke="#FFFFFF" stroke-width=".817" stroke-miterlimit="10" stroke-linecap="round" stroke-linejoin="round">
    <path d="M216.049-26.137v4.808h-8.325v4.808h-8.325v4.807h-8.325v4.808h-8.325v4.803h-8.325v4.808h-8.325M216.049-11.715v4.808h-8.325v4.804h-8.325v4.807h-8.325v4.808h-8.325v4.808h-8.325v4.803h-8.325M216.049 2.704v4.808h-8.325v4.808h-8.325v4.803h-8.325v4.808h-8.325v4.807h-8.325M216.049 17.123v4.808h-8.325v4.807h-8.325M199.398 26.711v4.804h-8.325v4.807h-8.324v4.808h-8.325v4.807h-8.325M216.049 31.516v4.807h-8.325v4.808h-8.325v4.808h-8.325v4.807h-8.325v4.804h-8.325v4.807h-8.325M216.049 45.938v4.807h-8.325v4.804h-8.325v4.808h-8.325v4.807h-8.325v4.808h-8.325v4.803h-8.325M216.049 60.356v4.808h-8.325v4.808h-8.325v4.803h-8.325v4.808h-8.325v4.808h-8.325M216.049 74.775v4.808h-8.325v4.808h-8.325M174.424 26.71v4.804h-8.325M199.398 84.152v4.804h-8.325v4.808h-8.324v4.807h-8.325v4.808h-8.325M216.049 88.957v4.808h-8.325v4.807h-8.325v4.808h-8.325v4.808h-8.325v4.803h-8.325v4.808h-8.325M216.049 103.379v4.808h-8.325v4.803h-8.325v4.808h-8.325v4.808h-8.325v4.807h-8.325v4.804h-8.325M216.049 117.798v4.808h-8.325v4.807h-8.325v4.804h-8.325v4.807h-8.325v4.808h-8.325M216.049 132.217v4.807h-8.325v4.808h-8.325M174.424 84.152v4.803h-8.325M149.24-2.014V2.79h-8.325v4.808h-8.325v4.807h-8.325v4.808h-8.325M165.891 2.791v4.808h-8.325v4.807h-8.325v4.808h-8.325v4.808h-8.325v4.803h-8.325v4.808h-8.325M165.891 17.213v4.808h-8.325v4.803h-8.325v4.808h-8.325v4.808h-8.325v4.807h-8.325v4.804h-8.325M165.891 31.634v4.807h-8.325v4.808h-8.325v4.804h-8.325v4.807h-8.325v4.808h-8.325M165.891 46.053v4.807h-8.325v4.808h-8.325M124.266-2.013v4.804h-8.325M149.24 55.432v4.803h-8.325v4.808h-8.325v4.807h-8.325v4.808h-8.325M165.891 60.236v4.808h-8.325v4.808h-8.325v4.807h-8.325v4.808h-8.325v4.803h-8.325v4.808h-8.325M165.891 74.658v4.808h-8.325v4.804h-8.325v4.807h-8.325v4.808h-8.325v4.808h-8.325v4.803h-8.325M165.891 89.077v4.808h-8.325v4.807h-8.325v4.804h-8.325v4.808h-8.325v4.807h-8.325M165.891 103.496v4.808h-8.325v4.807h-8.325M124.266 55.433v4.803h-8.325M149.24 113.148v4.804h-8.325v4.808h-8.325v4.807h-8.325v4.808h-8.325M165.891 117.953v4.808h-8.325v4.807h-8.325v4.808h-8.325v4.808h-8.325v4.803h-8.325v4.808h-8.325M165.891 132.373v4.808h-8.325v4.803h-8.325v4.808h-8.325v4.808h-8.325v4.807h-8.325v4.804h-8.325M124.266 113.148v4.803h-8.325M99.291-16.578v4.803h-8.325v4.808h-8.325v4.808h-8.325v4.807h-8.325M115.941-11.777v4.807h-8.325v4.808h-8.325v4.808h-8.325v4.807h-8.324v4.804h-8.325v4.807h-8.325"/>
    <path d="M115.941 2.645v4.807h-8.325v4.804h-8.325v4.808h-8.325v4.807h-8.324v4.808h-8.325v4.803h-8.325M115.941 17.065v4.808h-8.325v4.808h-8.325v4.803h-8.325v4.808h-8.324V41.1h-8.325M115.941 31.484v4.808h-8.325V41.1h-8.325M99.291 41.277v4.804h-8.325v4.808h-8.325v4.807h-8.325v4.808h-8.325M115.941 46.082v4.808h-8.325v4.807h-8.325v4.808h-8.325v4.808h-8.324v4.803h-8.325v4.808h-8.325M115.941 60.502v4.808h-8.325v4.803h-8.325v4.808h-8.325v4.808h-8.324v4.807h-8.325v4.804h-8.325M115.941 74.923v4.808h-8.325v4.807h-8.325v4.804h-8.325v4.807h-8.324v4.808h-8.325M115.941 89.342v4.807h-8.325v4.808h-8.325M74.316 41.279v4.803h-8.325"/>
    <path d="M99.291 98.58v4.804h-8.325v4.807h-8.325v4.808h-8.325v4.808h-8.325M115.941 103.383v4.807h-8.325v4.808h-8.325v4.808h-8.325v4.807h-8.324v4.804h-8.325v4.808h-8.325M115.941 117.805v4.808h-8.325v4.803h-8.325v4.808h-8.325v4.807h-8.324v4.808h-8.325v4.804h-8.325M115.941 132.224v4.807h-8.325v4.808h-8.325v4.803h-8.325v4.808h-8.324v4.808h-8.325M74.316 98.577v4.804h-8.325M49.09 69.984v4.804h-8.325v4.808H32.44v4.807h-8.325v4.808H15.79M65.74 74.789v4.808h-8.325v4.807H49.09v4.808h-8.325v4.808H32.44v4.803h-8.325v4.808h-8.324M65.74 89.211v4.808h-8.325v4.803H49.09v4.808h-8.325v4.808H32.44v4.807h-8.325v4.804h-8.324M65.74 103.63v4.808h-8.325v4.807H49.09v4.804h-8.325v4.807H32.44v4.808h-8.325M65.74 118.049v4.807h-8.325v4.808H49.09M24.115 69.984v4.803H15.79M65.74-26.152v4.808h-8.325v4.803H49.09v4.808h-8.325v4.807H32.44v4.808h-8.325v4.804h-8.324M65.74-11.733v4.807h-8.325v4.808H49.09v4.803h-8.325v4.808H32.44v4.808h-8.325M65.74 2.685v4.808h-8.325v4.808H49.09"/>
    <path d="M49.09 127.637v4.803h-8.325v4.808H32.44v4.808h-8.325v4.807H15.79M24.115 127.636v4.803H15.79M49.09 12.06v4.804h-8.325v4.808H32.44v4.807h-8.325v4.808H15.79M65.74 16.865v4.808h-8.325v4.808H49.09v4.807h-8.325v4.808H32.44v4.803h-8.325v4.808h-8.324M65.74 31.287v4.808h-8.325v4.803H49.09v4.808h-8.325v4.808H32.44v4.807h-8.325v4.804h-8.324M65.74 45.708v4.808h-8.325v4.807H49.09v4.804h-8.325v4.807H32.44v4.808h-8.325M65.74 60.127v4.807h-8.325v4.808H49.09M24.115 12.062v4.803H15.79M15.582 103.719v4.807H7.257v4.808h-8.325v4.808h-8.325v4.807h-8.325v4.804h-8.325v4.808h-8.325M15.582 118.141v4.808H7.257v4.803h-8.325v4.808h-8.325v4.807h-8.325v4.808h-8.325v4.804h-8.325M15.582-11.855v4.807H7.257v4.808h-8.325v4.808h-8.325v4.807h-8.325v4.804h-8.325v4.807h-8.325M15.582 2.567v4.807H7.257v4.804h-8.325v4.807h-8.325v4.808h-8.325v4.808h-8.325v4.803h-8.325M15.582 16.987v4.808H7.257v4.808h-8.325v4.803h-8.325v4.808h-8.325v4.808h-8.325M15.582 31.406v4.808H7.257v4.808h-8.325M15.582 45.86v4.807H7.257v4.808h-8.325v4.807h-8.325v4.808h-8.325v4.803h-8.325v4.808h-8.325M15.582 60.282v4.807H7.257v4.804h-8.325V74.7h-8.325v4.808h-8.325v4.808h-8.325v4.803h-8.325M15.582 74.702v4.808H7.257v4.807h-8.325v4.804h-8.325v4.808h-8.325v4.807h-8.325M15.582 89.121v4.808H7.257v4.807h-8.325"/>
  </g>
</svg>
