<svg width="220" height="132" fill="none" xmlns="http://www.w3.org/2000/svg">
  <mask id="a" mask-type="alpha" maskUnits="userSpaceOnUse" x="0" y="0" width="220" height="132">
    <path d="M0 132V0h220v132H0z" fill="#212121"/>
  </mask>
  <g mask="url(#a)" stroke="#FFFFFF" stroke-width="1.073" stroke-miterlimit="10">
    <path d="M-47.352-5.455c15.583-2.123 29.131-1.539 46.975-6.81l.03-.01c24.448-7.222 36.16-19.289 60.747-26.553M-44.108 5.473c11.9-1.086 23.345-1.591 37.488-5.77l.032-.009c24.447-7.222 36.158-19.29 60.746-26.553M-40.824 16.617c8.695-.787 17.59-1.876 27.925-4.93l.031-.008C11.58 4.456 23.292-7.611 47.88-14.875M41.623-2.913c24.587-7.264 40.976-3.499 65.423-10.721l.032-.01c24.447-7.222 36.158-19.29 60.746-26.553M-37.59 27.547c5.761-.78 11.804-1.928 18.44-3.888l.03-.01C5.328 16.427 17.04 4.36 41.627-2.904M35.35 9.07c24.587-7.264 40.976-3.5 65.423-10.722l.031-.01c24.448-7.222 36.159-19.289 60.747-26.553M-34.522 37.939a115.154 115.154 0 009.115-2.298l.032-.01C-.928 28.41 10.783 16.343 35.37 9.079M29.093 21.042c24.588-7.264 40.977-3.499 65.424-10.721l.031-.01c24.448-7.222 36.159-19.29 60.747-26.553M-31.682 47.606l.031-.01c24.447-7.222 36.159-19.289 60.747-26.553M22.818 33.019c24.588-7.264 40.977-3.5 65.424-10.722l.031-.009c24.447-7.223 36.159-19.29 60.747-26.554M-29.022 56.56c18.79-7.242 30.443-17.206 51.846-23.529M16.566 44.995c24.588-7.264 40.977-3.499 65.424-10.721l.031-.01c24.447-7.222 36.159-19.289 60.747-26.553M-26.587 64.805c14.157-6.663 25.234-14.503 43.155-19.797M10.302 56.968C34.89 49.704 51.28 53.47 75.726 46.246l.031-.009c24.448-7.222 36.159-19.29 60.747-26.553M-24.32 72.492c10.537-5.533 20.436-11.323 34.627-15.515M4.035 68.945c24.588-7.264 40.976-3.5 65.424-10.722l.03-.01c24.448-7.222 36.16-19.289 60.747-26.553M-22.11 79.97c7.698-4.047 15.775-7.962 26.141-11.025M-2.225 80.923C22.363 73.66 38.752 77.424 63.2 70.201l.031-.009c24.447-7.222 36.159-19.29 60.747-26.553M-8.479 92.898c24.588-7.264 40.977-3.5 65.424-10.722l.031-.01c24.447-7.222 36.159-19.289 60.747-26.553"/>
    <path d="M149.001-4.262c24.588-7.264 40.976-3.5 65.424-10.722l.031-.01a115.196 115.196 0 008.9-3.023M142.753 7.712C167.341.448 183.73 4.213 208.177-3.009l.031-.01c6.635-1.96 12.331-4.28 17.607-6.76M136.472 19.694c24.588-7.264 40.976-3.5 65.424-10.722l.031-.01c10.35-3.057 18.409-6.977 26.136-11.042M130.224 31.668c24.588-7.264 40.977-3.499 65.424-10.721l.031-.01c14.144-4.178 24.022-9.983 34.618-15.543M123.947 43.646c24.587-7.264 40.976-3.5 65.424-10.722l.031-.01c17.843-5.27 28.914-13.129 43.149-19.815M117.691 55.623c24.588-7.264 40.977-3.499 65.424-10.721l.031-.01c21.309-6.295 32.926-16.269 51.843-23.538"/>
    <path d="M109.793 65.163c24.587-7.264 40.976-3.499 65.423-10.721l.032-.01c24.447-7.222 36.158-19.289 60.746-26.553M-16.413 102.449c24.588-7.265 40.977-3.5 65.424-10.722l.032-.01C73.49 84.496 85.2 72.429 109.789 65.165M103.515 77.14c24.588-7.264 40.977-3.499 65.424-10.722l.031-.009c24.448-7.222 36.159-19.29 60.747-26.554M-13.551 112.123c19.814-4.174 35-2.128 56.293-8.419l.031-.01c24.447-7.222 36.159-19.29 60.747-26.553M97.261 89.117c24.588-7.265 40.977-3.5 65.424-10.722l.031-.01c24.448-7.222 36.159-19.289 60.747-26.553M-10.493 122.502c15.583-2.123 29.131-1.539 46.975-6.81l.031-.009c24.448-7.223 36.159-19.29 60.747-26.554M90.994 101.097c24.588-7.264 40.976-3.5 65.424-10.722l.031-.009c24.447-7.223 36.159-19.29 60.746-26.553"/>
    <path d="M-7.252 133.426c11.9-1.086 23.344-1.591 37.488-5.77l.031-.009c24.447-7.222 36.159-19.289 60.747-26.553M84.736 113.066c24.588-7.264 40.977-3.499 65.424-10.722l.031-.009c24.447-7.223 36.159-19.29 60.747-26.554M-3.969 144.57c8.696-.787 17.591-1.876 27.926-4.929l.03-.009c24.448-7.223 36.16-19.29 60.747-26.554M78.484 125.044c24.588-7.264 40.977-3.499 65.424-10.721l.031-.01c24.447-7.222 36.159-19.29 60.747-26.553M-.729 155.504c5.762-.781 11.805-1.928 18.44-3.888l.03-.01c24.448-7.222 36.16-19.289 60.747-26.553M72.209 137.027c24.587-7.264 40.976-3.499 65.423-10.722l.032-.009c24.447-7.223 36.158-19.29 60.746-26.554M65.953 148.995c24.587-7.264 40.976-3.499 65.424-10.721l.031-.009c24.447-7.223 36.159-19.29 60.746-26.554M59.677 160.976c24.588-7.264 40.977-3.499 65.424-10.722l.031-.009c24.448-7.223 36.159-19.289 60.747-26.554M217.176 63.813c10.366-3.062 19.274-4.165 27.951-4.957M210.915 75.79c14.19-4.192 25.647-4.71 37.501-5.783M204.645 87.77c17.922-5.296 31.498-4.73 47.003-6.83M198.387 99.743c21.419-6.328 36.619-4.288 56.325-8.428"/>
    <path d="M192.118 111.721c24.588-7.264 40.977-3.499 65.424-10.722l.031-.009M185.86 123.695c24.588-7.264 40.977-3.499 65.424-10.722l.031-.009a115.44 115.44 0 008.901-3.024M179.61 135.669c24.588-7.264 40.977-3.499 65.424-10.721l.031-.01c6.635-1.96 12.332-4.281 17.608-6.761M173.331 147.651c24.588-7.264 40.977-3.499 65.424-10.722l.031-.009c10.351-3.058 18.409-6.978 26.137-11.043M167.079 159.621c24.588-7.264 40.977-3.499 65.424-10.721l.031-.01c14.144-4.178 24.023-9.983 34.618-15.543"/>
  </g>
</svg>
