<svg width="220" height="132" fill="none" xmlns="http://www.w3.org/2000/svg">
  <mask id="a" mask-type="alpha" maskUnits="userSpaceOnUse" x="0" y="0" width="220" height="132">
    <path d="M0 132V0h220v132H0z" fill="#212121"/>
  </mask>
  <g mask="url(#a)" stroke="#FFFFFF" stroke-miterlimit="10" stroke-linecap="round" stroke-linejoin="round">
    <path d="M-162.355 150.188l15.406-4.125 4.126-15.407 15.406-4.126 4.126-15.406 15.406-4.126 4.126-15.406 15.406-4.126 4.126-15.406 15.406-4.126 4.126-15.406 15.406-4.126 4.127-15.407 15.406-4.125 4.126-15.407 15.406-4.126 4.126-15.406M-151.064 161.479l15.406-4.126 4.126-15.406 15.406-4.126 4.126-15.406 15.406-4.126 4.126-15.406 15.406-4.126 4.126-15.407 15.406-4.126 4.126-15.406 15.407-4.126 4.126-15.406 15.406-4.126 4.126-15.406 15.406-4.126L5.193 5.222M-139.787 172.759l15.416-4.116 4.116-15.416 15.416-4.117 4.116-15.416 15.416-4.116 4.116-15.416 15.416-4.116 4.117-15.416 15.416-4.116 4.116-15.416 15.416-4.116 4.116-15.416 15.416-4.116 4.116-15.416 15.416-4.116 4.116-15.416M-128.496 184.049l15.416-4.116 4.116-15.416 15.416-4.116 4.116-15.416 15.416-4.116 4.116-15.416 15.416-4.116 4.117-15.416 15.415-4.117 4.117-15.416 15.416-4.116 4.116-15.416L4.113 62.74l4.116-15.416 15.416-4.116 4.116-15.416M-117.207 195.34l15.406-4.126 4.126-15.406 15.406-4.126 4.126-15.406 15.407-4.126 4.125-15.407 15.407-4.126 4.126-15.406 15.406-4.126 4.126-15.406 15.406-4.126 4.126-15.406 15.406-4.126 4.126-15.406 15.406-4.126 4.126-15.406M-105.916 206.63l15.406-4.126 4.126-15.406 15.406-4.126 4.126-15.406 15.407-4.126 4.126-15.407 15.406-4.126 4.126-15.406 15.406-4.126 4.126-15.406 15.406-4.126 4.126-15.406 15.406-4.126 4.126-15.406 15.406-4.126 4.126-15.406M-94.627 217.92l15.406-4.126 4.126-15.406 15.406-4.126 4.126-15.406 15.407-4.126 4.125-15.406 15.407-4.126 4.126-15.406 15.406-4.126 4.126-15.406 15.406-4.126 4.126-15.407 15.406-4.126 4.126-15.406 15.406-4.126 4.126-15.406M-83.348 229.2l15.416-4.116 4.117-15.416 15.415-4.116 4.117-15.416 15.416-4.116 4.116-15.416 15.416-4.116 4.116-15.416 15.416-4.117 4.116-15.416 15.416-4.116 4.116-15.416 15.416-4.116 4.116-15.416 15.416-4.116 4.117-15.416M-72.057 240.491l15.407-4.126 4.125-15.406 15.407-4.126 4.126-15.407 15.406-4.126 4.126-15.406 15.406-4.126 4.126-15.406 15.406-4.126 4.126-15.406 15.406-4.126 4.126-15.406 15.406-4.126 4.126-15.406 15.407-4.126L84.2 84.233M-61.012 251.538l15.407-4.126 4.125-15.406 15.407-4.126 4.126-15.406 15.406-4.126 4.126-15.406 15.406-4.126 4.126-15.407 15.406-4.126 4.126-15.406 15.406-4.126 4.126-15.406 15.406-4.126 4.126-15.406 15.407-4.126 4.126-15.406M-49.7 262.849l15.407-4.126 4.126-15.407 15.406-4.125 4.126-15.407 15.406-4.126 4.126-15.406 15.406-4.126 4.126-15.406 15.407-4.126 4.126-15.406 15.406-4.126 4.126-15.406L82.9 141.53l4.126-15.406 15.406-4.126 4.126-15.407M-38.43 274.119l15.407-4.126 4.125-15.407 15.407-4.125 4.126-15.407 15.406-4.126 4.126-15.406 15.406-4.126 4.126-15.406 15.406-4.126 4.126-15.406 15.406-4.126 4.126-15.406L94.17 152.8l4.126-15.406 15.407-4.126 4.126-15.407M-27.15 285.399l15.416-4.116 4.116-15.416 15.416-4.116 4.116-15.416 15.416-4.116 4.116-15.416 15.416-4.116 4.116-15.416 15.416-4.116 4.116-15.416 15.416-4.117 4.117-15.416 15.416-4.116 4.116-15.416 15.416-4.116 4.116-15.416M6.162 4.246L21.568.12l4.126-15.406L41.1-19.412l4.126-15.406 15.407-4.126 4.126-15.406 15.406-4.126 4.126-15.406 15.406-4.126 4.126-15.407 15.406-4.126 4.126-15.406 15.406-4.126 4.126-15.406 15.406-4.126 4.126-15.406M17.441 15.526l15.416-4.116 4.117-15.416L52.39-8.122l4.116-15.416 15.416-4.116 4.116-15.416 15.416-4.116 4.116-15.416 15.416-4.117 4.116-15.415 15.416-4.117 4.116-15.416 15.416-4.116 4.117-15.416 15.416-4.116 4.116-15.416M28.73 26.816L44.148 22.7l4.116-15.416 15.416-4.116 4.116-15.416 15.416-4.116 4.116-15.416 15.416-4.116 4.116-15.416 15.416-4.116 4.116-15.416 15.416-4.117 4.116-15.416 15.416-4.116 4.117-15.416 15.416-4.116 4.116-15.416M40.02 38.107l15.406-4.126 4.126-15.406 15.406-4.126L79.084-.957 94.49-5.083l4.126-15.407 15.406-4.126 4.126-15.406 15.406-4.126 4.126-15.406 15.407-4.126 4.125-15.406 15.407-4.126 4.126-15.406 15.406-4.126 4.126-15.406M51.31 49.398l15.407-4.127 4.126-15.406 15.406-4.126 4.126-15.406 15.406-4.126 4.126-15.406 15.406-4.126 4.126-15.406 15.406-4.126 4.126-15.406 15.407-4.126 4.126-15.407 15.406-4.125 4.126-15.407 15.406-4.126 4.126-15.406M62.602 60.688l15.406-4.127 4.126-15.406L97.54 37.03l4.126-15.406 15.406-4.126 4.126-15.406 15.406-4.126 4.126-15.406 15.406-4.126 4.126-15.406 15.407-4.126 4.126-15.407 15.406-4.125 4.126-15.407 15.406-4.126 4.126-15.406M73.88 71.967l15.417-4.116 4.116-15.416 15.416-4.116 4.116-15.416 15.416-4.116 4.116-15.416 15.416-4.116 4.117-15.416 15.415-4.117 4.117-15.415 15.416-4.117 4.116-15.416 15.416-4.116 4.116-15.416 15.416-4.116 4.116-15.416M85.172 83.258l15.406-4.126 4.126-15.406L120.11 59.6l4.126-15.407 15.406-4.125 4.126-15.407 15.407-4.126 4.126-15.406 15.406-4.126 4.126-15.406 15.406-4.126 4.126-15.406 15.406-4.126 4.126-15.406 15.406-4.126L241.429-73M96.223 94.304l15.406-4.126 4.126-15.406 15.406-4.126 4.126-15.406 15.406-4.126 4.126-15.406 15.406-4.126 4.126-15.406 15.406-4.126 4.126-15.407 15.407-4.126 4.126-15.406 15.406-4.126 4.126-15.406 15.406-4.126 4.126-15.406M107.531 105.613l15.406-4.126 4.126-15.406 15.407-4.126 4.126-15.406 15.406-4.126 4.126-15.406 15.406-4.126 4.126-15.406 15.406-4.126 4.126-15.407 15.406-4.125 4.126-15.407 15.406-4.126 4.126-15.406 15.407-4.126 4.126-15.406M118.803 116.884l15.406-4.126 4.126-15.406 15.406-4.126 4.126-15.406 15.406-4.126 4.126-15.406 15.406-4.126 4.126-15.406 15.407-4.126 4.126-15.407 15.406-4.125L235.996-.31l15.406-4.126 4.126-15.406 15.406-4.126 4.126-15.406M130.084 128.165l15.416-4.117 4.116-15.416 15.416-4.116 4.116-15.416 15.416-4.116 4.116-15.416 15.416-4.116 4.117-15.416 15.416-4.116 4.116-15.416 15.416-4.116 4.116-15.416 15.416-4.117 4.116-15.416 15.416-4.116 4.116-15.416M141.375 139.455l15.406-4.126 4.126-15.406 15.406-4.126 4.126-15.406 15.407-4.126 4.125-15.406 15.407-4.126 4.126-15.407L234.91 57.2l4.126-15.406 15.406-4.126 4.126-15.406 15.406-4.126L278.1 2.73l15.406-4.126 4.126-15.406M152.662 150.744l15.406-4.126 4.126-15.406 15.406-4.126 4.126-15.406 15.407-4.126 4.126-15.406 15.406-4.126 4.126-15.407 15.406-4.125 4.126-15.407 15.406-4.126 4.126-15.406 15.406-4.126 4.126-15.406 15.406-4.126 4.126-15.406M163.951 162.034l15.406-4.126 4.126-15.406 15.407-4.126 4.125-15.406 15.407-4.126 4.126-15.406 15.406-4.126 4.126-15.406 15.406-4.126 4.126-15.407 15.406-4.126 4.126-15.406 15.406-4.126 4.126-15.406 15.406-4.126 4.126-15.406M175.232 173.313l15.416-4.116 4.117-15.416 15.416-4.116 4.116-15.416 15.416-4.117 4.116-15.415 15.416-4.117 4.116-15.416 15.416-4.116 4.116-15.416 15.416-4.116 4.116-15.416 15.416-4.116 4.117-15.416 15.416-4.116 4.116-15.416M186.521 184.604l15.416-4.117 4.117-15.416 15.416-4.116 4.116-15.416 15.416-4.116 4.116-15.416 15.416-4.116 4.116-15.416 15.416-4.116 4.116-15.416 15.416-4.117 4.116-15.415 15.416-4.117 4.117-15.416 15.416-4.116 4.116-15.416M197.812 195.896l15.407-4.126 4.126-15.407 15.406-4.126 4.126-15.406 15.406-4.126 4.126-15.406 15.406-4.126 4.126-15.406 15.406-4.126 4.126-15.406 15.406-4.126 4.126-15.406 15.407-4.126 4.126-15.407 15.406-4.126 4.126-15.406M209.102 207.184l15.406-4.126 4.126-15.406 15.406-4.126 4.126-15.406 15.406-4.126 4.126-15.406 15.406-4.126 4.126-15.407 15.406-4.126 4.126-15.406 15.407-4.126 4.126-15.406 15.406-4.126 4.126-15.406 15.406-4.126 4.126-15.406M220.395 218.475l15.406-4.126 4.126-15.406 15.406-4.126 4.126-15.406 15.406-4.126 4.126-15.406 15.406-4.126 4.126-15.407 15.406-4.126 4.126-15.406 15.407-4.126 4.125-15.406 15.407-4.126 4.126-15.406 15.406-4.126 4.126-15.406"/>
  </g>
</svg>
